<svg xmlns="http://www.w3.org/2000/svg" width="156" height="41">
    <path fill-rule="evenodd" d="M155.721 10.477v1.883h-7.625V.985h7.61v1.898h-5.266v2.711h4.5V7.43h-4.5v3.047h5.281zm-15.195-2.281h-1.867v4.164h-2.344V.985h4.226c1.344 0 2.38.3 3.11.898.729.599 1.093 1.446 1.093 2.54 0 .776-.168 1.423-.503 1.941-.336.518-.846.931-1.528 1.238l2.461 4.649v.109h-2.515l-2.133-4.164zm1.418-4.852c-.305-.307-.773-.461-1.403-.461h-1.882v3.414h1.89c.589 0 1.044-.149 1.367-.449.323-.299.485-.712.485-1.238 0-.536-.153-.958-.457-1.266zm-11.543 6.672h-4.11l-.781 2.344h-2.492L127.252.985h2.172l4.258 11.375h-2.492l-.789-2.344zm-2.063-6.156l-1.414 4.258h2.844l-1.43-4.258zm-10.41-.613c-.352-.331-.887-.496-1.606-.496-.781 0-1.366.28-1.754.839-.388.56-.587 1.429-.597 2.606v.859c0 1.23.186 2.128.558 2.696.373.567.96.851 1.762.851.724 0 1.264-.165 1.621-.496.357-.331.561-.842.613-1.535h2.344c-.089 1.224-.54 2.187-1.355 2.891-.816.703-1.89 1.054-3.223 1.054-1.458 0-2.606-.491-3.441-1.472-.836-.982-1.254-2.33-1.254-4.043v-.696c0-1.093.192-2.057.578-2.89.385-.834.936-1.473 1.652-1.918.716-.446 1.548-.668 2.496-.668 1.313 0 2.37.351 3.172 1.054.802.704 1.266 1.691 1.391 2.961h-2.344c-.057-.734-.262-1.266-.613-1.597zm-11.95 4.238h-4.57v4.875h-2.344V.985h2.344v4.609h4.57V.985h2.344V12.36h-2.344V7.485zM92.673 12.36H90.33V2.883h-3.438V.985h9.266v1.898h-3.485v9.477zM78.962.985h2.344v9.492h4.977v1.883h-7.321V.985zm1.613 29.531c.352.537.528 1.146.528 1.828h-2.344c0-.52-.164-.925-.492-1.214-.328-.29-.789-.434-1.383-.434-.573 0-1.018.121-1.336.363-.318.242-.477.561-.477.957 0 .37.187.68.559.93.372.25.921.484 1.645.703 1.333.401 2.304.898 2.914 1.492.609.594.914 1.334.914 2.219 0 .984-.373 1.757-1.117 2.316-.745.56-1.748.84-3.008.84-.875 0-1.672-.16-2.391-.48-.719-.321-1.267-.759-1.644-1.317-.378-.557-.567-1.203-.567-1.937h2.352c0 1.255.75 1.883 2.25 1.883.557 0 .992-.114 1.304-.34.313-.227.469-.543.469-.949 0-.443-.156-.783-.469-1.02-.312-.237-.875-.487-1.687-.75-.813-.263-1.456-.522-1.93-.777-1.292-.698-1.937-1.638-1.937-2.821 0-.614.173-1.162.519-1.644.347-.482.844-.858 1.492-1.129.649-.271 1.377-.406 2.184-.406.813 0 1.536.147 2.172.441.635.294 1.129.71 1.48 1.246zm-7.527-20.5h-4.109l-.782 2.344h-2.492L69.9.985h2.171l4.258 11.375h-2.492l-.789-2.344zM70.986 3.86l-1.415 4.258h2.844L70.986 3.86zm-2.579 26.023c.729.599 1.094 1.446 1.094 2.54 0 .776-.168 1.423-.504 1.941-.336.518-.845.931-1.527 1.238l2.461 4.649v.109h-2.516l-2.133-4.164h-1.867v4.164h-2.344V28.985h4.227c1.344 0 2.38.3 3.109.898zm-3.109 1h-1.883v3.415h1.891c.588 0 1.044-.15 1.367-.45.323-.299.484-.712.484-1.238 0-.536-.152-.958-.457-1.266-.305-.307-.772-.461-1.402-.461zM56.056.985h7.609v1.898h-5.266v2.711h4.5V7.43h-4.5v3.047h5.282v1.883h-7.625V.985zm1.742 33.437v.508c0 1.12-.198 2.102-.594 2.946-.396.843-.962 1.494-1.699 1.953-.737.458-1.582.687-2.536.687-.942 0-1.783-.226-2.523-.679-.74-.454-1.312-1.101-1.719-1.942-.406-.841-.612-1.808-.617-2.902v-.563c0-1.119.202-2.105.606-2.957.403-.851.973-1.505 1.711-1.961.736-.455 1.579-.683 2.527-.683.948 0 1.79.228 2.527.683.737.456 1.307 1.11 1.711 1.961.404.852.606 1.835.606 2.949zm-2.375-.007c0-1.193-.214-2.099-.641-2.719-.427-.62-1.037-.93-1.828-.93-.787 0-1.393.306-1.82.918-.428.612-.644 1.509-.649 2.692v.554c0 1.162.214 2.063.641 2.703.427.641 1.041.961 1.843.961.787 0 1.391-.308 1.813-.925.422-.618.635-1.517.641-2.7v-.554zm-5.329-26.93h-4.57v4.875H43.18V.985h2.344v4.609h4.57V.985h2.344V12.36h-2.344V7.485zm-4.914 26.93v.523c0 1.057-.217 1.998-.652 2.82-.435.823-1.048 1.461-1.84 1.915-.792.453-1.685.682-2.68.687h-3.523V28.985h3.5c1 0 1.894.225 2.684.676.789.45 1.404 1.091 1.847 1.922.443.83.664 1.774.664 2.832zm-2.375-.008c0-1.156-.239-2.033-.718-2.629-.48-.596-1.18-.895-2.102-.895h-1.156v7.594h1.133c.916 0 1.617-.299 2.101-.898s.732-1.456.742-2.571v-.601zM32.422 11.672c-.791.454-1.685.683-2.679.688h-3.524V.985h3.5c1 0 1.895.225 2.684.676.789.45 1.405 1.091 1.847 1.922.443.83.664 1.774.664 2.832v.523c0 1.057-.217 1.998-.652 2.82-.435.823-1.048 1.461-1.84 1.914zm.117-5.265c0-1.156-.239-2.033-.718-2.629-.48-.596-1.18-.895-2.102-.895h-1.156v7.594h1.133c.916 0 1.617-.299 2.101-.898.485-.599.732-1.456.742-2.571v-.601zm-2.007 22.578h2.336V40.36h-2.344l-4.563-7.484v7.484h-2.343V28.985h2.343l4.571 7.5v-7.5zM15.695 4.876v7.484h-2.343V.985h2.343l4.571 7.5v-7.5h2.336V12.36h-2.344l-4.563-7.484zm4.961 26.007h-5.265v2.711h4.5v1.836h-4.5v3.047h5.281v1.883h-7.625V28.985h7.609v1.898zM7.438 10.016h-4.11l-.781 2.344H.055L4.289.985h2.172l4.258 11.375H8.227l-.789-2.344zM5.375 3.86L3.961 8.118h2.844L5.375 3.86zm-.156 33.68l2.578-8.555h2.609L6.445 40.36H4L.055 28.985h2.601l2.563 8.555z"/>
</svg>
