<svg xmlns="http://www.w3.org/2000/svg" width="75" height="90">
    <path fill="#B3B3B3" fill-rule="evenodd" d="M61.843 48.069c-.104-11.292 9.384-16.712 9.813-16.977-5.338-7.675-13.647-8.727-16.612-8.85-7.067-.703-13.797 4.088-17.379 4.088-3.582 0-9.121-3.987-14.981-3.875-7.714.113-14.815 4.403-18.787 11.185-8.005 13.647-2.042 33.873 5.751 44.95 3.817 5.416 8.361 11.516 14.335 11.292 5.757-.225 7.931-3.655 14.878-3.655 6.948 0 8.905 3.655 14.987 3.548 6.186-.118 10.112-5.533 13.9-10.965 4.372-6.287 6.18-12.371 6.283-12.691-.137-.057-12.063-4.549-12.188-18.05M51.024 13.835C54.298 10.171 56.508 5.077 55.899 0c-4.716.175-10.424 2.905-13.81 6.568-3.032 3.238-5.691 8.424-4.97 13.398 5.259.377 10.631-2.473 13.905-6.131"/>
</svg>
