<svg xmlns="http://www.w3.org/2000/svg" width="75" height="76">
    <path fill="#FFF" fill-rule="evenodd" d="M75 37.5c0 13.397-7.148 25.777-18.75 32.476-11.603 6.699-25.898 6.699-37.5 0C7.147 63.277 0 50.897 0 37.5 0 24.102 7.147 11.723 18.75 5.024c11.602-6.699 25.897-6.699 37.5 0C67.852 11.723 75 24.102 75 37.5z"/>
    <path fill="#ED1C24" fill-rule="evenodd" d="M49 37.5C49 31.148 43.851 26 37.5 26 31.148 26 26 31.148 26 37.5 26 43.851 31.148 49 37.5 49 43.851 49 49 43.851 49 37.5"/>
    <path fill="#ED1C24" fill-rule="evenodd" d="M37.501 0c-3.573 0-7.024.51-10.297 1.443v20.27c2.96-1.934 6.495-3.063 10.297-3.063 10.41 0 18.85 8.439 18.85 18.85 0 10.41-8.44 18.85-18.85 18.85-10.411 0-18.852-8.44-18.852-18.85 0-.335.01-.668.027-.998l-.027.02V5.088C7.499 11.587 0 23.664 0 37.5 0 58.21 16.79 75 37.501 75S75 58.21 75 37.5 58.212 0 37.501 0"/>
</svg>
