<svg xmlns="http://www.w3.org/2000/svg" width="146" height="62">
    <path fill-rule="evenodd" d="M19.116 36.845v.036c1.9 1.14 4.884 3.208 4.884 10.7C24 55.611 20.405 61 13.024 61H0V15h13.092c5.995 0 10.433 3.794 10.433 12.171 0 6.484-2.712 8.501-4.409 9.674zM11.87 22.096H7.695v11.718h4.175c1.884 0 3.9-1.504 3.9-5.853 0-4.303-1.745-5.865-3.9-5.865zm.105 18.832h-4.28v12.98h4.28c2.661 0 4.291-1.68 4.291-6.972 0-3.855-1.358-6.008-4.291-6.008zM49.521 36.845v.036c2.512 1.381 4.356 2.992 4.356 8.724L53.873 61h-7.919V46.784c0-4.065-1.598-5.856-3.834-5.856h-4.262L37.853 61H30V15h13.37C49.492 15 54 18.794 54 27.171c0 6.484-2.746 8.501-4.479 9.674zm-7.399-14.749h-4.264v11.718h4.264c1.924 0 3.976-1.504 3.976-5.853 0-4.303-1.775-5.865-3.976-5.865zM77.415 60.991l.003-19.956h-9.84V61H60V9.973C60 .722 69.295 0 72.499 0 75.693 0 85 .705 85 9.973v51.018h-7.585zM72.499 7.225c-1.755 0-4.931.444-4.931 3.884l-.005 22.848h9.851l.003-22.848c0-3.449-3.163-3.884-4.918-3.884zM107.995 16v35.865c0 1.825-1.61 3.045-4.002 3.045-2.402 0-3.981-1.222-3.981-3.045L100.005 16l-8.003.01L92 53.063C92 60.119 99.736 62 104.002 62 108.23 62 116 60.109 116 53.055V16h-8.005M137.996 60.994l-.003-35.857c0-1.826-1.609-3.045-3.999-3.045-2.402 0-3.985 1.222-3.985 3.045l-.003 35.857-8.007.006V23.938c0-7.057 7.739-8.938 12.005-8.938C138.232 15 146 16.891 146 23.946v37.048h-8.004"/>
</svg>
