<svg xmlns="http://www.w3.org/2000/svg" width="156" height="40">
    <path fill="#142529" fill-rule="evenodd" d="M58.579 13.8h-7.437v-3.6c.033-4.173 1.153-5.723 2.388-6.518 1.268-.826 3.196-.899 5.049-.88.785 0 1.417-.629 1.417-1.406C59.996.627 59.364 0 58.579 0c-1.836.012-4.335-.065-6.565 1.31-2.263 1.41-3.724 4.258-3.692 8.89v3.6h-2.906c-.782 0-1.416.632-1.416 1.401 0 .774.634 1.405 1.416 1.405h2.906v20.997c0 .766.634 1.397 1.412 1.397.782 0 1.414-.631 1.414-1.397-.002-13.427-.006-14.354-.006-20.997h7.437c.78 0 1.421-.631 1.421-1.405 0-.769-.641-1.401-1.421-1.401M91.588 36.207v-.009c-2.379.021-4.301-.119-5.39-.929-1.079-.768-2.039-2.431-2.051-6.669V16.643h7.441c.78 0 1.412-.627 1.412-1.401 0-.778-.632-1.401-1.412-1.401h-7.441V1.401C84.147.627 83.514 0 82.73 0c-.778 0-1.406.627-1.406 1.401v12.44h-2.908c-.78 0-1.416.623-1.416 1.401 0 .774.636 1.401 1.416 1.401h2.908V28.6c-.017 4.568 1.074 7.401 3.228 8.947 2.145 1.482 4.657 1.44 7.036 1.453.78 0 1.412-.619 1.412-1.397 0-.774-.632-1.396-1.412-1.396M154.587 36.206c-3.048.021-4.913-.314-5.82-1.139-.93-.761-1.63-2.523-1.619-6.403V16.64h7.439c.785 0 1.413-.627 1.413-1.401 0-.778-.628-1.401-1.413-1.401h-7.439V1.393c0-.779-.63-1.393-1.413-1.393-.782 0-1.414.614-1.414 1.393v12.445h-2.905c-.784 0-1.416.623-1.416 1.401 0 .774.632 1.401 1.416 1.401h2.905v12.024c.009 4.096.651 6.802 2.602 8.517 1.981 1.66 4.534 1.806 7.664 1.819.776 0 1.413-.619 1.413-1.393s-.637-1.397-1.413-1.397M66 37.67V16.336c0-.735.677-1.336 1.497-1.336.83 0 1.503.601 1.503 1.336V37.67c0 .729-.673 1.33-1.503 1.33-.82 0-1.497-.601-1.497-1.33M131 37.67V16.336c0-.735.664-1.336 1.491-1.336.831 0 1.509.601 1.509 1.336V37.67c0 .729-.678 1.33-1.509 1.33-.827 0-1.491-.601-1.491-1.33M112.501 39c-6.535 0-11.889-5.072-12.446-11.53-.02-.094-.055-.184-.055-.282V1.397c0-.775.612-1.397 1.381-1.397.761 0 1.377.622 1.377 1.397v17.021c2.292-2.883 5.805-4.732 9.743-4.732C119.404 13.69 125 19.354 125 26.344 125 33.336 119.404 39 112.501 39zm0-22.512c-5.381.004-9.732 4.409-9.743 9.856.011 5.449 4.362 9.846 9.743 9.858 5.381-.012 9.728-4.409 9.74-9.858-.012-5.447-4.359-9.856-9.74-9.856zM19 19.5c0 1.38-1.119 2.5-2.5 2.5S14 20.88 14 19.5c0-1.381 1.119-2.5 2.5-2.5s2.5 1.119 2.5 2.5zM25 19.5c0 1.38-1.12 2.5-2.501 2.5C21.119 22 20 20.88 20 19.5c0-1.381 1.119-2.5 2.499-2.5C23.88 17 25 18.119 25 19.5zM31 19.5c0 1.38-1.119 2.5-2.5 2.5S26 20.88 26 19.5c0-1.381 1.119-2.5 2.5-2.5s2.5 1.119 2.5 2.5zM12 19.5c0 1.38-1.12 2.5-2.5 2.5C8.119 22 7 20.88 7 19.5 7 18.119 8.119 17 9.5 17c1.38 0 2.5 1.119 2.5 2.5z"/>
    <path fill="#2EBEC0" fill-rule="evenodd" d="M19 32.5c0 1.38-1.119 2.5-2.5 2.5S14 33.88 14 32.5c0-1.381 1.119-2.5 2.5-2.5s2.5 1.119 2.5 2.5zM19 6.5C19 7.88 17.881 9 16.5 9S14 7.88 14 6.5C14 5.119 15.119 4 16.5 4S19 5.119 19 6.5zM19 26.5c0 1.381-1.119 2.5-2.5 2.5S14 27.881 14 26.5s1.119-2.5 2.5-2.5 2.5 1.119 2.5 2.5z"/>
    <path fill="#142529" fill-rule="evenodd" d="M25 26.5c0 1.381-1.12 2.5-2.501 2.5C21.119 29 20 27.881 20 26.5s1.119-2.5 2.499-2.5C23.88 24 25 25.119 25 26.5z"/>
    <path fill="#2EBEC0" fill-rule="evenodd" d="M12 26.5c0 1.381-1.12 2.5-2.5 2.5C8.119 29 7 27.881 7 26.5S8.119 24 9.5 24c1.38 0 2.5 1.119 2.5 2.5zM19 13.5c0 1.381-1.119 2.5-2.5 2.5S14 14.881 14 13.5s1.119-2.5 2.5-2.5 2.5 1.119 2.5 2.5z"/>
    <path fill="#142529" fill-rule="evenodd" d="M25 13.5c0 1.381-1.12 2.5-2.501 2.5C21.119 16 20 14.881 20 13.5s1.119-2.5 2.499-2.5C23.88 11 25 12.119 25 13.5z"/>
    <path fill="#2EBEC0" fill-rule="evenodd" d="M12 13.5c0 1.381-1.12 2.5-2.5 2.5C8.119 16 7 14.881 7 13.5S8.119 11 9.5 11c1.38 0 2.5 1.119 2.5 2.5z"/>
    <path fill="#142529" fill-rule="evenodd" d="M5 19.5C5 20.88 3.881 22 2.5 22S0 20.88 0 19.5C0 18.119 1.119 17 2.5 17S5 18.119 5 19.5z"/>
    <path fill="#2EBEC0" fill-rule="evenodd" d="M70 6.5C70 7.88 68.88 9 67.5 9 66.119 9 65 7.88 65 6.5 65 5.119 66.119 4 67.5 4 68.88 4 70 5.119 70 6.5zM135 6.5c0 1.38-1.12 2.5-2.5 2.5-1.381 0-2.5-1.12-2.5-2.5 0-1.381 1.119-2.5 2.5-2.5 1.38 0 2.5 1.119 2.5 2.5z"/>
</svg>
