<svg xmlns="http://www.w3.org/2000/svg" width="99" height="21">
    <path fill="#787878" fill-rule="evenodd" d="M28.765 1.954C28.476.894 27.486.109 26.299.109H12.584c-1.414 0-2.56 1.107-2.56 2.473 0 1.367 1.146 2.474 2.56 2.474h4.402V2.669c0-1.366 1.147-2.474 2.561-2.474s2.561 1.108 2.561 2.474v2.387h3.76c.734-1.218 1.723-2.274 2.897-3.102"/>
    <path fill="#ABABAB" fill-rule="evenodd" d="M28.859 2.583c0-.219-.039-.427-.094-.629-1.174.828-2.163 1.883-2.897 3.103h.431c1.414 0 2.56-1.108 2.56-2.474"/>
    <path fill="#252525" fill-rule="evenodd" d="M28.859 2.583c0-.219-.039-.427-.094-.629-1.174.828-2.163 1.883-2.897 3.103h.431c1.414 0 2.56-1.108 2.56-2.474"/>
    <path fill="#A4A4A4" fill-rule="evenodd" d="M16.986 17.766c0 1.366 1.147 2.474 2.561 2.474s2.561-1.108 2.561-2.474V5.057h-5.122v12.709z"/>
    <path fill="#C2C2C2" fill-rule="evenodd" d="M19.547.196c-1.414 0-2.561 1.107-2.561 2.473v2.387h5.122V2.669c0-1.366-1.147-2.473-2.561-2.473"/>
    <path fill="#252525" fill-rule="evenodd" d="M19.547.196c-1.414 0-2.561 1.107-2.561 2.473v2.387h5.122V2.669c0-1.366-1.147-2.473-2.561-2.473"/>
    <path fill-opacity="0" fill-rule="evenodd" d="M93.209.196h5.122V20.24h-5.122V.196z"/>
    <path fill="#A4A4A4" fill-rule="evenodd" d="M95.77.196c-1.414 0-2.561 1.107-2.561 2.473V17.766c0 1.366 1.147 2.474 2.561 2.474s2.561-1.108 2.561-2.474V2.669c0-1.366-1.147-2.473-2.561-2.473"/>
    <path fill-opacity="0" fill-rule="evenodd" d="M24.443 10.189H45.42v10.132H24.443V10.189z"/>
    <path fill="#787878" fill-rule="evenodd" d="M40.299 10.189c0 2.859-2.408 5.185-5.368 5.185-2.958 0-5.366-2.326-5.366-5.185h-5.122c0 5.587 4.705 10.132 10.488 10.132 5.784 0 10.489-4.545 10.489-10.132h-5.121z"/>
    <path fill="#A4A4A4" fill-rule="evenodd" d="M29.565 10.131c0-2.858 2.408-5.184 5.367-5.184s5.367 2.326 5.367 5.184h5.121C45.42 4.545 40.715 0 34.932 0c-2.306 0-4.434.731-6.167 1.954.055.202.094.41.094.629 0 1.366-1.146 2.473-2.56 2.473h-.431c-.901 1.495-1.425 3.225-1.425 5.075h5.122z"/>
    <path fill="#252525" fill-rule="evenodd" d="M26.993 7.376c-1.414 0-2.561 1.108-2.561 2.474v.192c0 1.366 1.147 2.474 2.561 2.474s2.561-1.108 2.561-2.474V9.85c0-1.366-1.147-2.474-2.561-2.474M42.84 7.376c-1.414 0-2.561 1.108-2.561 2.474v.192c0 1.366 1.147 2.474 2.561 2.474s2.561-1.108 2.561-2.474V9.85c0-1.366-1.147-2.474-2.561-2.474"/>
    <path fill="#A4A4A4" fill-rule="evenodd" d="M45.748 2.707v15.059c0 1.366 1.146 2.474 2.56 2.474 1.415 0 2.561-1.108 2.561-2.474V5.143h-2.565c-1.4 0-2.535-1.087-2.556-2.436"/>
    <path fill="#787878" fill-rule="evenodd" d="M54.594.196h-6.285c1.414 0 2.561 1.107 2.561 2.473v2.474h3.724c1.367 0 2.48 1.074 2.48 2.395s-1.113 2.396-2.48 2.396c-1.414 0-2.561 1.107-2.561 2.473 0 1.366 1.147 2.474 2.561 2.474 4.191 0 7.602-3.294 7.602-7.343 0-4.048-3.411-7.342-7.602-7.342"/>
    <path fill="#B7B7B7" fill-rule="evenodd" d="M48.308.196c-1.414 0-2.56 1.107-2.56 2.473v.038c.021 1.349 1.156 2.436 2.556 2.436h2.565V2.669c0-1.366-1.146-2.473-2.561-2.473"/>
    <path fill="#252525" fill-rule="evenodd" d="M48.308.196c-1.414 0-2.56 1.107-2.56 2.473v.038c.021 1.349 1.156 2.436 2.556 2.436h2.565V2.669c0-1.366-1.146-2.473-2.561-2.473"/>
    <path fill="#A4A4A4" fill-rule="evenodd" d="M74.068 2.707v15.059c0 1.366 1.146 2.474 2.561 2.474 1.414 0 2.56-1.108 2.56-2.474V5.143h-2.565c-1.4 0-2.535-1.087-2.556-2.436"/>
    <path fill="#787878" fill-rule="evenodd" d="M82.914.196h-6.285c1.414 0 2.561 1.107 2.561 2.473v2.474h3.724c1.367 0 2.48 1.074 2.48 2.395s-1.113 2.396-2.48 2.396c-1.414 0-2.561 1.107-2.561 2.473 0 1.366 1.147 2.474 2.561 2.474 4.191 0 7.601-3.294 7.601-7.343 0-4.048-3.41-7.342-7.601-7.342"/>
    <path fill="#B7B7B7" fill-rule="evenodd" d="M76.629.196c-1.415 0-2.561 1.107-2.561 2.473v.038c.021 1.349 1.156 2.436 2.556 2.436h2.565V2.669c0-1.366-1.146-2.473-2.56-2.473"/>
    <path fill="#252525" fill-rule="evenodd" d="M76.629.196c-1.415 0-2.561 1.107-2.561 2.473v.038c.021 1.349 1.156 2.436 2.556 2.436h2.565V2.669c0-1.366-1.146-2.473-2.56-2.473"/>
    <path fill="#393838" fill-rule="evenodd" d="M2.561.196C1.147.196 0 1.303 0 2.669v.192c0 1.366 1.147 2.474 2.561 2.474s2.56-1.108 2.56-2.474v-.192c0-1.366-1.146-2.473-2.56-2.473M65.946 15.038c-1.414 0-2.561 1.107-2.561 2.473v.192c0 1.366 1.147 2.474 2.561 2.474s2.561-1.108 2.561-2.474v-.192c0-1.366-1.147-2.473-2.561-2.473"/>
    <path fill="#6A6A6A" fill-rule="evenodd" d="M2.561 7.307C1.61 7.307.728 7.023 0 6.539v11.227c0 1.366 1.147 2.474 2.561 2.474s2.56-1.108 2.56-2.474V6.539c-.728.484-1.61.768-2.56.768"/>
</svg>
