<svg xmlns="http://www.w3.org/2000/svg" width="60" height="33">
    <path fill="#787878" fill-rule="evenodd" d="M27.804 2.447C27.529 1.388 26.587.603 25.458.603H12.41c-1.346 0-2.437 1.108-2.437 2.473 0 1.366 1.091 2.473 2.437 2.473h4.187V3.163c0-1.366 1.091-2.473 2.437-2.473 1.345 0 2.436 1.107 2.436 2.473v2.386h3.578c.698-1.218 1.639-2.273 2.756-3.102"/>
    <path fill="#ABABAB" fill-rule="evenodd" d="M27.894 3.076c0-.218-.037-.427-.09-.628-1.117.828-2.058 1.882-2.756 3.101h.409c1.346 0 2.437-1.107 2.437-2.473"/>
    <path fill="#252525" fill-rule="evenodd" d="M27.894 3.076c0-.218-.037-.427-.09-.628-1.117.828-2.058 1.882-2.756 3.101h.409c1.346 0 2.437-1.107 2.437-2.473"/>
    <path fill="#A4A4A4" fill-rule="evenodd" d="M16.597 18.253c0 1.366 1.091 2.473 2.437 2.473 1.345 0 2.436-1.107 2.436-2.473V5.549h-4.873v12.704z"/>
    <path fill="#C2C2C2" fill-rule="evenodd" d="M19.034.69c-1.346 0-2.437 1.107-2.437 2.473v2.386h4.873V3.163c0-1.366-1.091-2.473-2.436-2.473"/>
    <path fill="#252525" fill-rule="evenodd" d="M19.034.69c-1.346 0-2.437 1.107-2.437 2.473v2.386h4.873V3.163c0-1.366-1.091-2.473-2.436-2.473"/>
    <path fill="#787878" fill-rule="evenodd" d="M38.777 10.68c0 2.858-2.291 5.183-5.107 5.183-2.815 0-5.105-2.325-5.105-5.183h-4.873c0 5.585 4.476 10.128 9.978 10.128 5.503 0 9.979-4.543 9.979-10.128h-4.872z"/>
    <path fill-opacity="0" fill-rule="evenodd" d="M23.692.494h19.957v10.128H23.692V.494z"/>
    <path fill="#A4A4A4" fill-rule="evenodd" d="M28.565 10.622c0-2.858 2.29-5.182 5.105-5.182 2.816 0 5.107 2.324 5.107 5.182h4.872c0-5.584-4.476-10.128-9.979-10.128-2.193 0-4.217.731-5.866 1.953.053.202.09.411.09.629 0 1.366-1.091 2.473-2.437 2.473h-.409c-.857 1.494-1.356 3.224-1.356 5.073h4.873z"/>
    <path fill="#252525" fill-rule="evenodd" d="M26.118 7.868c-1.345 0-2.436 1.107-2.436 2.473v.192c0 1.365 1.091 2.472 2.436 2.472s2.437-1.107 2.437-2.472v-.192c0-1.366-1.092-2.473-2.437-2.473M41.195 7.868c-1.345 0-2.436 1.107-2.436 2.473v.192c0 1.365 1.091 2.472 2.436 2.472s2.436-1.107 2.436-2.472v-.192c0-1.366-1.091-2.473-2.436-2.473"/>
    <path fill="#A4A4A4" fill-rule="evenodd" d="M43.961 3.201v15.053c0 1.365 1.091 2.472 2.436 2.472 1.346 0 2.437-1.107 2.437-2.472V5.635h-2.441c-1.332 0-2.412-1.086-2.432-2.434"/>
    <path fill="#787878" fill-rule="evenodd" d="M52.377.69h-5.979c1.345 0 2.436 1.107 2.436 2.473v2.472h3.543c1.301 0 2.359 1.075 2.359 2.395s-1.058 2.394-2.359 2.394c-1.345 0-2.436 1.107-2.436 2.473 0 1.365 1.091 2.472 2.436 2.472 3.987 0 7.232-3.292 7.232-7.339 0-4.047-3.245-7.34-7.232-7.34"/>
    <path fill="#B7B7B7" fill-rule="evenodd" d="M46.397.69c-1.345 0-2.436 1.107-2.436 2.473v.038c.02 1.348 1.1 2.434 2.432 2.434h2.441V3.163c0-1.366-1.091-2.473-2.437-2.473"/>
    <path fill="#252525" fill-rule="evenodd" d="M46.397.69c-1.345 0-2.436 1.107-2.436 2.473v.038c.02 1.348 1.1 2.434 2.432 2.434h2.441V3.163c0-1.366-1.091-2.473-2.437-2.473"/>
    <path fill="#A4A4A4" fill-rule="evenodd" d="M2.566 32.726c-1.475 0-2.567-1.115-2.567-2.522 0-1.392 1.106-2.521 2.581-2.521 1.474 0 2.566 1.115 2.566 2.521 0 1.392-1.106 2.522-2.58 2.522zm0-3.831c-.724 0-1.208.596-1.208 1.309 0 .7.498 1.309 1.222 1.309.73 0 1.215-.596 1.215-1.309 0-.7-.499-1.309-1.229-1.309zM11.699 27.78h1.236l1.965 2.563V27.78h1.311v4.848H15.05l-2.04-2.659v2.659h-1.311V27.78zM23.194 27.78h1.324v3.671h2.314v1.177h-3.638V27.78zM33.563 32.628h1.331V27.78h-1.331v4.848zM41.906 27.78h1.236l1.965 2.563V27.78h1.311v4.848h-1.161l-2.041-2.659v2.659h-1.31V27.78zM53.401 27.78h3.842v1.142h-2.532v.735h2.294v1.059h-2.294v.77h2.567v1.142h-3.877V27.78z"/>
    <path fill="#393838" fill-rule="evenodd" d="M2.874.69C1.528.69.437 1.797.437 3.163v.192c0 1.365 1.091 2.472 2.437 2.472 1.345 0 2.436-1.107 2.436-2.472v-.192C5.31 1.797 4.219.69 2.874.69"/>
    <path fill="#6A6A6A" fill-rule="evenodd" d="M2.874 7.799c-.905 0-1.744-.284-2.437-.768v11.223c0 1.365 1.091 2.472 2.437 2.472 1.345 0 2.436-1.107 2.436-2.472V7.031c-.693.484-1.532.768-2.436.768"/>
</svg>
