<svg data-name="Layer 1" version="1.1" viewBox="0 0 98.34 20.69" xmlns="http://www.w3.org/2000/svg">
 <defs>
  <style>.cls-1,.cls-2,.cls-3{fill:none;}.cls-1{clip-rule:evenodd;}.cls-3{fill-rule:evenodd;}.cls-4{fill:#fff;}.cls-5{clip-path:url(#clip-path);}.cls-6{clip-path:url(#clip-path-2);}.cls-7{fill:#787878;}.cls-8{clip-path:url(#clip-path-3);}.cls-9{fill:#ababab;}.cls-10{fill:#252525;}.cls-11{clip-path:url(#clip-path-7);}.cls-12{fill:#a4a4a4;}.cls-13{clip-path:url(#clip-path-9);}.cls-14{fill:#c2c2c2;}.cls-15{isolation:isolate;}.cls-16{clip-path:url(#clip-path-13);}.cls-17{clip-path:url(#clip-path-14);}.cls-18{clip-path:url(#clip-path-15);}.cls-19{clip-path:url(#clip-path-16);}.cls-20{clip-path:url(#clip-path-17);}.cls-21{clip-path:url(#clip-path-19);}.cls-22{clip-path:url(#clip-path-21);}.cls-23{clip-path:url(#clip-path-23);}.cls-24{clip-path:url(#clip-path-25);}.cls-25{clip-path:url(#clip-path-27);}.cls-26{fill:#b7b7b7;}.cls-27{clip-path:url(#clip-path-31);}.cls-28{clip-path:url(#clip-path-33);}.cls-29{clip-path:url(#clip-path-35);}.cls-30{clip-path:url(#clip-path-39);}.cls-31{fill:#393838;}.cls-32{clip-path:url(#clip-path-41);}.cls-33{clip-path:url(#clip-path-43);}.cls-34{fill:#6a6a6a;}</style>
  <clipPath id="clip-path">
   <path class="cls-1" d="m56.79 33.87a2.54 2.54 0 0 0-2.47-1.87h-13.71a2.48 2.48 0 1 0 0 4.95h4.39v-2.36a2.56 2.56 0 0 1 5.12 0v2.41h3.76a10.49 10.49 0 0 1 2.9-3.11" clip-rule="evenodd" fill="none"/>
  </clipPath>
  <clipPath id="clip-path-2">
   <rect class="cls-2" x="28.02" y="31.92" width="99" height="22" fill="none"/>
  </clipPath>
  <clipPath id="clip-path-3">
   <path class="cls-1" d="m56.88 34.5a2.23 2.23 0 0 0-0.09-0.63 10.49 10.49 0 0 0-2.9 3.13h0.43a2.52 2.52 0 0 0 2.56-2.48" clip-rule="evenodd" fill="none"/>
  </clipPath>
  <clipPath id="clip-path-7">
   <path class="cls-1" d="m45 49.69a2.56 2.56 0 0 0 5.12 0v-12.69h-5.12z" clip-rule="evenodd" fill="none"/>
  </clipPath>
  <clipPath id="clip-path-9">
   <path class="cls-1" d="m47.57 32.11a2.52 2.52 0 0 0-2.57 2.48v2.41h5.12v-2.41a2.52 2.52 0 0 0-2.56-2.48" clip-rule="evenodd" fill="none"/>
  </clipPath>
  <clipPath id="clip-path-13">
   <path class="cls-1" d="m123.79 32.11a2.52 2.52 0 0 0-2.56 2.48v15.1a2.57 2.57 0 0 0 5.13 0v-15.1a2.53 2.53 0 0 0-2.57-2.48" clip-rule="evenodd" fill="none"/>
  </clipPath>
  <clipPath id="clip-path-14">
   <rect class="cls-2" x="121.02" y="31.92" width="6" height="21" fill="none"/>
  </clipPath>
  <clipPath id="clip-path-15">
   <path class="cls-1" d="m68.32 42.11a5.37 5.37 0 0 1-10.73 0h-5.12a10.5 10.5 0 0 0 21 0z" clip-rule="evenodd" fill="none"/>
  </clipPath>
  <clipPath id="clip-path-16">
   <rect class="cls-2" x="52.02" y="41.92" width="22" height="11" fill="none"/>
  </clipPath>
  <clipPath id="clip-path-17">
   <path class="cls-1" d="m57.59 42.05a5.37 5.37 0 0 1 10.73 0h5.12a10.32 10.32 0 0 0-10.44-10.13 10.68 10.68 0 0 0-6.17 1.95 2.23 2.23 0 0 1 0.09 0.63 2.52 2.52 0 0 1-2.6 2.5h-0.43a9.77 9.77 0 0 0-1.42 5.07z" clip-rule="evenodd" fill="none"/>
  </clipPath>
  <clipPath id="clip-path-19">
   <path class="cls-1" d="m55 39.3a2.51 2.51 0 0 0-2.56 2.47v0.23a2.56 2.56 0 0 0 5.12 0v-0.19a2.51 2.51 0 0 0-2.56-2.51" clip-rule="evenodd" fill="none"/>
  </clipPath>
  <clipPath id="clip-path-21">
   <path class="cls-1" d="m70.86 39.3a2.51 2.51 0 0 0-2.56 2.47v0.23a2.57 2.57 0 0 0 5.13 0v-0.19a2.52 2.52 0 0 0-2.57-2.47" clip-rule="evenodd" fill="none"/>
  </clipPath>
  <clipPath id="clip-path-23">
   <path class="cls-1" d="m73.77 34.63v15a2.56 2.56 0 0 0 5.12 0v-12.57h-2.56a2.51 2.51 0 0 1-2.56-2.43" clip-rule="evenodd" fill="none"/>
  </clipPath>
  <clipPath id="clip-path-25">
   <path class="cls-1" d="m82.62 32.11h-6.29a2.52 2.52 0 0 1 2.56 2.48v2.47h3.73a2.4 2.4 0 1 1 0 4.79 2.48 2.48 0 1 0 0 4.95 7.35 7.35 0 1 0 0-14.69" clip-rule="evenodd" fill="none"/>
  </clipPath>
  <clipPath id="clip-path-27">
   <path class="cls-1" d="m76.33 32.11a2.52 2.52 0 0 0-2.56 2.48 2.51 2.51 0 0 0 2.56 2.43h2.56v-2.43a2.52 2.52 0 0 0-2.56-2.48" clip-rule="evenodd" fill="none"/>
  </clipPath>
  <clipPath id="clip-path-31">
   <path class="cls-1" d="m102.09 34.63v15a2.56 2.56 0 0 0 5.12 0v-12.57h-2.56a2.51 2.51 0 0 1-2.56-2.43" clip-rule="evenodd" fill="none"/>
  </clipPath>
  <clipPath id="clip-path-33">
   <path class="cls-1" d="m110.94 32.11h-6.29a2.52 2.52 0 0 1 2.56 2.48v2.47h3.73a2.4 2.4 0 1 1 0 4.79 2.48 2.48 0 1 0 0 4.95 7.35 7.35 0 1 0 0-14.69" clip-rule="evenodd" fill="none"/>
  </clipPath>
  <clipPath id="clip-path-35">
   <path class="cls-1" d="m104.65 32.11a2.52 2.52 0 0 0-2.56 2.48 2.51 2.51 0 0 0 2.56 2.43h2.56v-2.43a2.52 2.52 0 0 0-2.56-2.48" clip-rule="evenodd" fill="none"/>
  </clipPath>
  <clipPath id="clip-path-39">
   <path class="cls-1" d="m30.59 32.11a2.53 2.53 0 0 0-2.59 2.48v0.19a2.57 2.57 0 0 0 5.13 0v-0.19a2.52 2.52 0 0 0-2.56-2.48" clip-rule="evenodd" fill="none"/>
  </clipPath>
  <clipPath id="clip-path-41">
   <path class="cls-1" d="m94 47a2.51 2.51 0 0 0-2.56 2.47v0.19a2.56 2.56 0 0 0 5.12 0v-0.19a2.51 2.51 0 0 0-2.56-2.47" clip-rule="evenodd" fill="none"/>
  </clipPath>
  <clipPath id="clip-path-43">
   <path class="cls-1" d="m30.59 39.23a4.66 4.66 0 0 1-2.59-0.77v11.23a2.57 2.57 0 0 0 5.13 0v-11.23a4.65 4.65 0 0 1-2.56 0.77" clip-rule="evenodd" fill="none"/>
  </clipPath>
 </defs>
 <title>iTopLogos+gray</title>
 <g class="cls-5" transform="translate(-28.02,-31.92)" clip-path="url(#clip-path)">
  <g class="cls-6" clip-path="url(#clip-path-2)">
   <rect class="cls-7" x="33.05" y="27.03" width="28.74" height="14.95" fill="#787878"/>
  </g>
 </g>
 <g class="cls-8" transform="translate(-28.02,-31.92)" clip-path="url(#clip-path-3)">
  <g class="cls-6" clip-path="url(#clip-path-2)">
   <rect class="cls-9" x="48.89" y="28.87" width="12.99" height="13.1" fill="#ababab"/>
  </g>
 </g>
 <g class="cls-8" transform="translate(-28.02,-31.92)" clip-path="url(#clip-path-3)">
  <g class="cls-6" clip-path="url(#clip-path-2)">
   <rect class="cls-10" x="48.89" y="28.87" width="12.99" height="13.1" fill="#252525"/>
  </g>
 </g>
 <g class="cls-11" transform="translate(-28.02,-31.92)" clip-path="url(#clip-path-7)">
  <g class="cls-6" clip-path="url(#clip-path-2)">
   <rect class="cls-12" x="40.01" y="31.98" width="15.12" height="25.18" fill="#a4a4a4"/>
  </g>
 </g>
 <g class="cls-13" transform="translate(-28.02,-31.92)" clip-path="url(#clip-path-9)">
  <g class="cls-6" clip-path="url(#clip-path-2)">
   <rect class="cls-14" x="40.01" y="27.11" width="15.12" height="14.86" fill="#c2c2c2"/>
  </g>
 </g>
 <g class="cls-13" transform="translate(-28.02,-31.92)" clip-path="url(#clip-path-9)">
  <g class="cls-6" clip-path="url(#clip-path-2)">
   <rect class="cls-10" x="40.01" y="27.11" width="15.12" height="14.86" fill="#252525"/>
  </g>
 </g>
 <g class="cls-15" transform="translate(-28.02,-31.92)" style="isolation:isolate">
  <g class="cls-16" clip-path="url(#clip-path-13)">
   <g class="cls-17" clip-path="url(#clip-path-14)">
    <rect class="cls-12" x="116.23" y="27.11" width="15.12" height="30.04" fill="#a4a4a4"/>
   </g>
  </g>
 </g>
 <g class="cls-15" transform="translate(-28.02,-31.92)" style="isolation:isolate">
  <g class="cls-18" clip-path="url(#clip-path-15)">
   <g class="cls-19" clip-path="url(#clip-path-16)">
    <rect class="cls-7" x="47.47" y="37.11" width="30.98" height="20.13" fill="#787878"/>
   </g>
  </g>
 </g>
 <g class="cls-20" transform="translate(-28.02,-31.92)" clip-path="url(#clip-path-17)">
  <g class="cls-6" clip-path="url(#clip-path-2)">
   <rect class="cls-12" x="47.47" y="26.92" width="30.98" height="20.13" fill="#a4a4a4"/>
  </g>
 </g>
 <g class="cls-21" transform="translate(-28.02,-31.92)" clip-path="url(#clip-path-19)">
  <g class="cls-6" clip-path="url(#clip-path-2)">
   <rect class="cls-10" x="47.46" y="34.3" width="15.12" height="15.14" fill="#252525"/>
  </g>
 </g>
 <g class="cls-22" transform="translate(-28.02,-31.92)" clip-path="url(#clip-path-21)">
  <g class="cls-6" clip-path="url(#clip-path-2)">
   <rect class="cls-10" x="63.3" y="34.3" width="15.12" height="15.14" fill="#252525"/>
  </g>
 </g>
 <g class="cls-23" transform="translate(-28.02,-31.92)" clip-path="url(#clip-path-23)">
  <g class="cls-6" clip-path="url(#clip-path-2)">
   <rect class="cls-12" x="68.77" y="29.63" width="15.12" height="27.53" fill="#a4a4a4"/>
  </g>
 </g>
 <g class="cls-24" transform="translate(-28.02,-31.92)" clip-path="url(#clip-path-25)">
  <g class="cls-6" clip-path="url(#clip-path-2)">
   <rect class="cls-7" x="71.33" y="27.11" width="23.89" height="24.69" fill="#787878"/>
  </g>
 </g>
 <g class="cls-25" transform="translate(-28.02,-31.92)" clip-path="url(#clip-path-27)">
  <g class="cls-6" clip-path="url(#clip-path-2)">
   <rect class="cls-26" x="68.77" y="27.11" width="15.12" height="14.95" fill="#b7b7b7"/>
  </g>
 </g>
 <g class="cls-25" transform="translate(-28.02,-31.92)" clip-path="url(#clip-path-27)">
  <g class="cls-6" clip-path="url(#clip-path-2)">
   <rect class="cls-10" x="68.77" y="27.11" width="15.12" height="14.95" fill="#252525"/>
  </g>
 </g>
 <g class="cls-27" transform="translate(-28.02,-31.92)" clip-path="url(#clip-path-31)">
  <g class="cls-6" clip-path="url(#clip-path-2)">
   <rect class="cls-12" x="97.09" y="29.63" width="15.12" height="27.53" fill="#a4a4a4"/>
  </g>
 </g>
 <g class="cls-28" transform="translate(-28.02,-31.92)" clip-path="url(#clip-path-33)">
  <g class="cls-6" clip-path="url(#clip-path-2)">
   <rect class="cls-7" x="99.65" y="27.11" width="23.89" height="24.69" fill="#787878"/>
  </g>
 </g>
 <g class="cls-29" transform="translate(-28.02,-31.92)" clip-path="url(#clip-path-35)">
  <g class="cls-6" clip-path="url(#clip-path-2)">
   <rect class="cls-26" x="97.09" y="27.11" width="15.12" height="14.95" fill="#b7b7b7"/>
  </g>
 </g>
 <g class="cls-29" transform="translate(-28.02,-31.92)" clip-path="url(#clip-path-35)">
  <g class="cls-6" clip-path="url(#clip-path-2)">
   <rect class="cls-10" x="97.09" y="27.11" width="15.12" height="14.95" fill="#252525"/>
  </g>
 </g>
 <g class="cls-30" transform="translate(-28.02,-31.92)" clip-path="url(#clip-path-39)">
  <g class="cls-6" clip-path="url(#clip-path-2)">
   <rect class="cls-31" x="23.02" y="27.11" width="15.12" height="15.14" fill="#393838"/>
  </g>
 </g>
 <g class="cls-32" transform="translate(-28.02,-31.92)" clip-path="url(#clip-path-41)">
  <g class="cls-6" clip-path="url(#clip-path-2)">
   <rect class="cls-31" x="86.41" y="41.96" width="15.12" height="15.14" fill="#393838"/>
  </g>
 </g>
 <g class="cls-33" transform="translate(-28.02,-31.92)" clip-path="url(#clip-path-43)">
  <g class="cls-6" clip-path="url(#clip-path-2)">
   <rect class="cls-34" x="23.02" y="33.46" width="15.12" height="23.7" fill="#6a6a6a"/>
  </g>
 </g>
</svg>
