<svg data-name="Layer 1" version="1.1" viewBox="0 0 98.33 20.69" xmlns="http://www.w3.org/2000/svg">
 <defs>
  <style>.cls-1,.cls-2,.cls-3{fill:none;}.cls-1{clip-rule:evenodd;}.cls-3{fill-rule:evenodd;}.cls-4{fill:#fff;}.cls-5{clip-path:url(#clip-path);}.cls-6{clip-path:url(#clip-path-2);}.cls-7{fill:#007bff;}.cls-8{clip-path:url(#clip-path-3);}.cls-9{fill:#8f90f4;}.cls-10{fill:blue;}.cls-11{clip-path:url(#clip-path-7);}.cls-12{fill:#00c9ff;}.cls-13{clip-path:url(#clip-path-9);}.cls-14{fill:#5dea86;}.cls-15{clip-path:url(#clip-path-13);}.cls-16{clip-path:url(#clip-path-14);}.cls-17{clip-path:url(#clip-path-15);}.cls-18{clip-path:url(#clip-path-16);}.cls-19{clip-path:url(#clip-path-17);}.cls-20{clip-path:url(#clip-path-19);}.cls-21{clip-path:url(#clip-path-21);}.cls-22{clip-path:url(#clip-path-23);}.cls-23{clip-path:url(#clip-path-25);}.cls-24{clip-path:url(#clip-path-27);}.cls-25{fill:#3bdac9;}.cls-26{clip-path:url(#clip-path-31);}.cls-27{clip-path:url(#clip-path-33);}.cls-28{clip-path:url(#clip-path-35);}.cls-29{clip-path:url(#clip-path-39);}.cls-30{clip-path:url(#clip-path-41);}.cls-31{clip-path:url(#clip-path-43);}.cls-32{fill:#fa006b;}</style>
  <clipPath id="clip-path">
   <path class="cls-1" d="m60.77 34a2.54 2.54 0 0 0-2.47-1.84h-13.72a2.5 2.5 0 1 0 0 5h4.42v-2.49a2.56 2.56 0 0 1 5.12 0v2.39h3.76a10.24 10.24 0 0 1 2.89-3.06" clip-rule="evenodd" fill="none"/>
  </clipPath>
  <clipPath id="clip-path-2">
   <rect class="cls-2" x="32" y="32" width="99" height="22" fill="none"/>
  </clipPath>
  <clipPath id="clip-path-3">
   <path class="cls-1" d="m60.86 34.58a2.66 2.66 0 0 0-0.09-0.63 10.24 10.24 0 0 0-2.9 3.11h0.43a2.52 2.52 0 0 0 2.56-2.48" clip-rule="evenodd" fill="none"/>
  </clipPath>
  <clipPath id="clip-path-7">
   <path class="cls-1" d="m49 49.77a2.56 2.56 0 0 0 5.12 0v-12.71h-5.12z" clip-rule="evenodd" fill="none"/>
  </clipPath>
  <clipPath id="clip-path-9">
   <path class="cls-1" d="m51.55 32.2a2.51 2.51 0 0 0-2.55 2.47v2.39h5.12v-2.39a2.51 2.51 0 0 0-2.56-2.47" clip-rule="evenodd" fill="none"/>
  </clipPath>
  <clipPath id="clip-path-13">
   <path class="cls-1" d="m127.77 32.2a2.51 2.51 0 0 0-2.56 2.47v15.1a2.56 2.56 0 0 0 5.12 0v-15.1a2.51 2.51 0 0 0-2.56-2.47" clip-rule="evenodd" fill="none"/>
  </clipPath>
  <clipPath id="clip-path-14">
   <rect class="cls-2" x="125" y="32" width="6" height="21" fill="none"/>
  </clipPath>
  <clipPath id="clip-path-15">
   <path class="cls-1" d="m72.3 42.19a5.37 5.37 0 0 1-10.74 0h-5.12a10.5 10.5 0 0 0 21 0z" clip-rule="evenodd" fill="none"/>
  </clipPath>
  <clipPath id="clip-path-16">
   <rect class="cls-2" x="56" y="42" width="22" height="11" fill="none"/>
  </clipPath>
  <clipPath id="clip-path-17">
   <path class="cls-1" d="m61.56 42.13a5.37 5.37 0 0 1 10.74 0h5.12a10.33 10.33 0 0 0-10.49-10.13 10.67 10.67 0 0 0-6.16 2 2.66 2.66 0 0 1 0.09 0.63 2.52 2.52 0 0 1-2.56 2.48h-0.43a9.77 9.77 0 0 0-1.43 5.07z" clip-rule="evenodd" fill="none"/>
  </clipPath>
  <clipPath id="clip-path-19">
   <path class="cls-1" d="m59 39.38a2.51 2.51 0 0 0-2.56 2.47v0.15a2.56 2.56 0 0 0 5.12 0v-0.19a2.51 2.51 0 0 0-2.56-2.43" clip-rule="evenodd" fill="none"/>
  </clipPath>
  <clipPath id="clip-path-21">
   <path class="cls-1" d="m74.84 39.38a2.51 2.51 0 0 0-2.56 2.47v0.15a2.56 2.56 0 0 0 5.12 0v-0.19a2.51 2.51 0 0 0-2.56-2.47" clip-rule="evenodd" fill="none"/>
  </clipPath>
  <clipPath id="clip-path-23">
   <path class="cls-1" d="m77.75 34.71v15.06a2.56 2.56 0 0 0 5.12 0v-12.63h-2.57a2.51 2.51 0 0 1-2.55-2.43" clip-rule="evenodd" fill="none"/>
  </clipPath>
  <clipPath id="clip-path-25">
   <path class="cls-1" d="m86.59 32.2h-6.28a2.51 2.51 0 0 1 2.56 2.47v2.47h3.72a2.4 2.4 0 1 1 0 4.79 2.5 2.5 0 1 0 0 5 7.34 7.34 0 1 0 0-14.68" clip-rule="evenodd" fill="none"/>
  </clipPath>
  <clipPath id="clip-path-27">
   <path class="cls-1" d="m80.31 32.2a2.51 2.51 0 0 0-2.56 2.47 2.51 2.51 0 0 0 2.55 2.43h2.57v-2.43a2.51 2.51 0 0 0-2.56-2.47" clip-rule="evenodd" fill="none"/>
  </clipPath>
  <clipPath id="clip-path-31">
   <path class="cls-1" d="m106.07 34.71v15.06a2.56 2.56 0 0 0 5.12 0v-12.63h-2.57a2.51 2.51 0 0 1-2.55-2.43" clip-rule="evenodd" fill="none"/>
  </clipPath>
  <clipPath id="clip-path-33">
   <path class="cls-1" d="m114.91 32.2h-6.28a2.51 2.51 0 0 1 2.56 2.47v2.47h3.72a2.4 2.4 0 1 1 0 4.79 2.5 2.5 0 1 0 0 5 7.34 7.34 0 1 0 0-14.68" clip-rule="evenodd" fill="none"/>
  </clipPath>
  <clipPath id="clip-path-35">
   <path class="cls-1" d="m108.63 32.2a2.51 2.51 0 0 0-2.56 2.47 2.51 2.51 0 0 0 2.55 2.43h2.57v-2.43a2.51 2.51 0 0 0-2.56-2.47" clip-rule="evenodd" fill="none"/>
  </clipPath>
  <clipPath id="clip-path-39">
   <path class="cls-1" d="m34.56 32.2a2.51 2.51 0 0 0-2.56 2.47v0.19a2.56 2.56 0 0 0 5.12 0v-0.19a2.51 2.51 0 0 0-2.56-2.47" clip-rule="evenodd" fill="none"/>
  </clipPath>
  <clipPath id="clip-path-41">
   <path class="cls-1" d="m98 47a2.51 2.51 0 0 0-2.56 2.47v0.19a2.56 2.56 0 0 0 5.12 0v-0.19a2.52 2.52 0 0 0-2.56-2.47" clip-rule="evenodd" fill="none"/>
  </clipPath>
  <clipPath id="clip-path-43">
   <path class="cls-1" d="m34.56 39.31a4.65 4.65 0 0 1-2.56-0.77v11.23a2.56 2.56 0 0 0 5.12 0v-11.23a4.65 4.65 0 0 1-2.56 0.77" clip-rule="evenodd" fill="none"/>
  </clipPath>
 </defs>
 <title>iTopLogos+gray</title>
 <g class="cls-5" transform="translate(-32,-32)" clip-path="url(#clip-path)">
  <g class="cls-6" clip-path="url(#clip-path-2)">
   <rect class="cls-7" x="37.02" y="27.11" width="28.74" height="14.95" fill="#007bff"/>
  </g>
 </g>
 <g class="cls-8" transform="translate(-32,-32)" clip-path="url(#clip-path-3)">
  <g class="cls-6" clip-path="url(#clip-path-2)">
   <rect class="cls-9" x="52.87" y="28.95" width="12.99" height="13.1" fill="#8f90f4"/>
  </g>
 </g>
 <g class="cls-8" transform="translate(-32,-32)" clip-path="url(#clip-path-3)">
  <g class="cls-6" clip-path="url(#clip-path-2)">
   <rect class="cls-10" x="52.87" y="28.95" width="12.99" height="13.1" fill="#00f"/>
  </g>
 </g>
 <g class="cls-11" transform="translate(-32,-32)" clip-path="url(#clip-path-7)">
  <g class="cls-6" clip-path="url(#clip-path-2)">
   <rect class="cls-12" x="43.99" y="32.06" width="15.12" height="25.18" fill="#00c9ff"/>
  </g>
 </g>
 <g class="cls-13" transform="translate(-32,-32)" clip-path="url(#clip-path-9)">
  <g class="cls-6" clip-path="url(#clip-path-2)">
   <rect class="cls-14" x="43.99" y="27.2" width="15.12" height="14.86" fill="#5dea86"/>
  </g>
 </g>
 <g class="cls-13" transform="translate(-32,-32)" clip-path="url(#clip-path-9)">
  <g class="cls-6" clip-path="url(#clip-path-2)">
   <rect class="cls-10" x="43.99" y="27.2" width="15.12" height="14.86" fill="#00f"/>
  </g>
 </g>
 <g class="cls-15" transform="translate(-32,-32)" clip-path="url(#clip-path-13)">
  <g class="cls-16" clip-path="url(#clip-path-14)">
   <rect class="cls-12" x="120.21" y="27.2" width="15.12" height="30.04" fill="#00c9ff"/>
  </g>
 </g>
 <g class="cls-17" transform="translate(-32,-32)" clip-path="url(#clip-path-15)">
  <g class="cls-18" clip-path="url(#clip-path-16)">
   <rect class="cls-7" x="51.44" y="37.19" width="30.98" height="20.13" fill="#007bff"/>
  </g>
 </g>
 <g class="cls-19" transform="translate(-32,-32)" clip-path="url(#clip-path-17)">
  <g class="cls-6" clip-path="url(#clip-path-2)">
   <rect class="cls-12" x="51.44" y="27" width="30.98" height="20.13" fill="#00c9ff"/>
  </g>
 </g>
 <g class="cls-20" transform="translate(-32,-32)" clip-path="url(#clip-path-19)">
  <g class="cls-6" clip-path="url(#clip-path-2)">
   <rect class="cls-10" x="51.43" y="34.38" width="15.12" height="15.14" fill="#00f"/>
  </g>
 </g>
 <g class="cls-21" transform="translate(-32,-32)" clip-path="url(#clip-path-21)">
  <g class="cls-6" clip-path="url(#clip-path-2)">
   <rect class="cls-10" x="67.28" y="34.38" width="15.12" height="15.14" fill="#00f"/>
  </g>
 </g>
 <g class="cls-22" transform="translate(-32,-32)" clip-path="url(#clip-path-23)">
  <g class="cls-6" clip-path="url(#clip-path-2)">
   <rect class="cls-12" x="72.75" y="29.71" width="15.12" height="27.53" fill="#00c9ff"/>
  </g>
 </g>
 <g class="cls-23" transform="translate(-32,-32)" clip-path="url(#clip-path-25)">
  <g class="cls-6" clip-path="url(#clip-path-2)">
   <rect class="cls-7" x="75.31" y="27.2" width="23.89" height="24.69" fill="#007bff"/>
  </g>
 </g>
 <g class="cls-24" transform="translate(-32,-32)" clip-path="url(#clip-path-27)">
  <g class="cls-6" clip-path="url(#clip-path-2)">
   <rect class="cls-25" x="72.75" y="27.2" width="15.12" height="14.95" fill="#3bdac9"/>
  </g>
 </g>
 <g class="cls-24" transform="translate(-32,-32)" clip-path="url(#clip-path-27)">
  <g class="cls-6" clip-path="url(#clip-path-2)">
   <rect class="cls-10" x="72.75" y="27.2" width="15.12" height="14.95" fill="#00f"/>
  </g>
 </g>
 <g class="cls-26" transform="translate(-32,-32)" clip-path="url(#clip-path-31)">
  <g class="cls-6" clip-path="url(#clip-path-2)">
   <rect class="cls-12" x="101.07" y="29.71" width="15.12" height="27.53" fill="#00c9ff"/>
  </g>
 </g>
 <g class="cls-27" transform="translate(-32,-32)" clip-path="url(#clip-path-33)">
  <g class="cls-6" clip-path="url(#clip-path-2)">
   <rect class="cls-7" x="103.63" y="27.2" width="23.89" height="24.69" fill="#007bff"/>
  </g>
 </g>
 <g class="cls-28" transform="translate(-32,-32)" clip-path="url(#clip-path-35)">
  <g class="cls-6" clip-path="url(#clip-path-2)">
   <rect class="cls-25" x="101.07" y="27.2" width="15.12" height="14.95" fill="#3bdac9"/>
  </g>
 </g>
 <g class="cls-28" transform="translate(-32,-32)" clip-path="url(#clip-path-35)">
  <g class="cls-6" clip-path="url(#clip-path-2)">
   <rect class="cls-10" x="101.07" y="27.2" width="15.12" height="14.95" fill="#00f"/>
  </g>
 </g>
 <g class="cls-29" transform="translate(-32,-32)" clip-path="url(#clip-path-39)">
  <g class="cls-6" clip-path="url(#clip-path-2)">
   <rect class="cls-10" x="27" y="27.2" width="15.12" height="15.14" fill="#00f"/>
  </g>
 </g>
 <g class="cls-30" transform="translate(-32,-32)" clip-path="url(#clip-path-41)">
  <g class="cls-6" clip-path="url(#clip-path-2)">
   <rect class="cls-10" x="90.39" y="42.04" width="15.12" height="15.14" fill="#00f"/>
  </g>
 </g>
 <g class="cls-31" transform="translate(-32,-32)" clip-path="url(#clip-path-43)">
  <g class="cls-6" clip-path="url(#clip-path-2)">
   <rect class="cls-32" x="27" y="33.54" width="15.12" height="23.7" fill="#fa006b"/>
  </g>
 </g>
</svg>
