<?xml version="1.0" encoding="UTF-8" standalone="no"?>
<svg
   xmlns:dc="http://purl.org/dc/elements/1.1/"
   xmlns:cc="http://creativecommons.org/ns#"
   xmlns:rdf="http://www.w3.org/1999/02/22-rdf-syntax-ns#"
   xmlns:svg="http://www.w3.org/2000/svg"
   xmlns="http://www.w3.org/2000/svg"
   xmlns:sodipodi="http://sodipodi.sourceforge.net/DTD/sodipodi-0.dtd"
   xmlns:inkscape="http://www.inkscape.org/namespaces/inkscape"
   id="Layer_1"
   data-name="Layer 1"
   viewBox="0 0 59.960002 32.229999"
   version="1.1"
   sodipodi:docname="i-top-online-color.svg"
   width="59.959999"
   height="32.23"
   inkscape:version="0.92.4 (5da689c313, 2019-01-14)">
  <metadata
     id="metadata1686">
    <rdf:RDF>
      <cc:Work
         rdf:about="">
        <dc:format>image/svg+xml</dc:format>
        <dc:type
           rdf:resource="http://purl.org/dc/dcmitype/StillImage" />
        <dc:title>iTopLogos+gray</dc:title>
      </cc:Work>
    </rdf:RDF>
  </metadata>
  <sodipodi:namedview
     pagecolor="#ffffff"
     bordercolor="#666666"
     borderopacity="1"
     objecttolerance="10"
     gridtolerance="10"
     guidetolerance="10"
     inkscape:pageopacity="0"
     inkscape:pageshadow="2"
     inkscape:window-width="1920"
     inkscape:window-height="995"
     id="namedview1684"
     showgrid="false"
     inkscape:zoom="2.4807417"
     inkscape:cx="76.589996"
     inkscape:cy="43.060001"
     inkscape:window-x="-8"
     inkscape:window-y="-8"
     inkscape:window-maximized="1"
     inkscape:current-layer="Layer_1" />
  <defs
     id="defs1545">
    <style
       id="style1477">.cls-1,.cls-2,.cls-3{fill:none;}.cls-1{clip-rule:evenodd;}.cls-3{fill-rule:evenodd;}.cls-4{fill:#fff;}.cls-5{clip-path:url(#clip-path);}.cls-6{clip-path:url(#clip-path-2);}.cls-7{fill:#007bff;}.cls-8{clip-path:url(#clip-path-3);}.cls-9{fill:#8f90f4;}.cls-10{fill:blue;}.cls-11{clip-path:url(#clip-path-7);}.cls-12{fill:#00c9ff;}.cls-13{clip-path:url(#clip-path-9);}.cls-14{fill:#5dea86;}.cls-15{clip-path:url(#clip-path-13);}.cls-16{clip-path:url(#clip-path-15);}.cls-17{clip-path:url(#clip-path-16);}.cls-18{clip-path:url(#clip-path-17);}.cls-19{clip-path:url(#clip-path-19);}.cls-20{clip-path:url(#clip-path-21);}.cls-21{clip-path:url(#clip-path-23);}.cls-22{clip-path:url(#clip-path-24);}.cls-23{clip-path:url(#clip-path-25);}.cls-24{fill:#3bdac9;}.cls-25{clip-path:url(#clip-path-29);}.cls-26{clip-path:url(#clip-path-31);}.cls-27{clip-path:url(#clip-path-33);}.cls-28{clip-path:url(#clip-path-35);}.cls-29{clip-path:url(#clip-path-37);}.cls-30{clip-path:url(#clip-path-39);}.cls-31{clip-path:url(#clip-path-41);}.cls-32{clip-path:url(#clip-path-43);}.cls-33{fill:#fa006b;}</style>
    <clipPath
       id="clip-path">
      <path
         class="cls-1"
         d="M 77.93,28 A 2.45,2.45 0 0 0 75.57,26.16 H 62.46 a 2.47,2.47 0 0 0 0,4.94 h 4.21 v -2.37 a 2.45,2.45 0 1 1 4.89,0 v 2.38 h 3.6 A 10.15,10.15 0 0 1 77.93,28"
         id="path1479"
         inkscape:connector-curvature="0"
         style="clip-rule:evenodd;fill:none" />
    </clipPath>
    <clipPath
       id="clip-path-2">
      <rect
         class="cls-2"
         x="50"
         y="25.559999"
         width="61"
         height="34"
         id="rect1482"
         style="fill:none" />
    </clipPath>
    <clipPath
       id="clip-path-3">
      <path
         class="cls-1"
         d="m 78,28.64 a 2.59,2.59 0 0 0 -0.09,-0.63 10.15,10.15 0 0 0 -2.77,3.1 h 0.41 A 2.46,2.46 0 0 0 78,28.64"
         id="path1485"
         inkscape:connector-curvature="0"
         style="clip-rule:evenodd;fill:none" />
    </clipPath>
    <clipPath
       id="clip-path-7">
      <path
         class="cls-1"
         d="m 66.67,43.82 a 2.45,2.45 0 1 0 4.89,0 V 31.11 h -4.89 z"
         id="path1488"
         inkscape:connector-curvature="0"
         style="clip-rule:evenodd;fill:none" />
    </clipPath>
    <clipPath
       id="clip-path-9">
      <path
         class="cls-1"
         d="m 69.12,26.25 a 2.47,2.47 0 0 0 -2.45,2.48 v 2.38 h 4.89 v -2.38 a 2.46,2.46 0 0 0 -2.44,-2.48"
         id="path1491"
         inkscape:connector-curvature="0"
         style="clip-rule:evenodd;fill:none" />
    </clipPath>
    <clipPath
       id="clip-path-13">
      <path
         class="cls-1"
         d="m 89,36.25 a 5.13,5.13 0 1 1 -10.26,0 H 73.8 a 10,10 0 1 0 20,0 z"
         id="path1494"
         inkscape:connector-curvature="0"
         style="clip-rule:evenodd;fill:none" />
    </clipPath>
    <clipPath
       id="clip-path-15">
      <path
         class="cls-1"
         d="m 78.69,36.19 a 5.13,5.13 0 1 1 10.26,0 h 4.89 a 10.09,10.09 0 0 0 -10,-10.13 9.86,9.86 0 0 0 -5.89,2 2.59,2.59 0 0 1 0.09,0.63 2.46,2.46 0 0 1 -2.45,2.47 h -0.41 a 10.18,10.18 0 0 0 -1.36,5.08 z"
         id="path1497"
         inkscape:connector-curvature="0"
         style="clip-rule:evenodd;fill:none" />
    </clipPath>
    <clipPath
       id="clip-path-16">
      <rect
         class="cls-2"
         x="73"
         y="25.559999"
         width="21"
         height="11"
         id="rect1500"
         style="fill:none" />
    </clipPath>
    <clipPath
       id="clip-path-17">
      <path
         class="cls-1"
         d="m 76.23,33.43 a 2.46,2.46 0 0 0 -2.44,2.48 v 0.19 a 2.45,2.45 0 1 0 4.89,0 v -0.19 a 2.47,2.47 0 0 0 -2.45,-2.48"
         id="path1503"
         inkscape:connector-curvature="0"
         style="clip-rule:evenodd;fill:none" />
    </clipPath>
    <clipPath
       id="clip-path-19">
      <path
         class="cls-1"
         d="m 91.37,33.43 a 2.46,2.46 0 0 0 -2.44,2.48 v 0.19 a 2.45,2.45 0 1 0 4.89,0 v -0.19 a 2.46,2.46 0 0 0 -2.45,-2.48"
         id="path1506"
         inkscape:connector-curvature="0"
         style="clip-rule:evenodd;fill:none" />
    </clipPath>
    <clipPath
       id="clip-path-21">
      <path
         class="cls-1"
         d="m 94.15,28.77 v 15.05 a 2.45,2.45 0 1 0 4.9,0 V 31.2 H 96.6 a 2.46,2.46 0 0 1 -2.45,-2.43"
         id="path1509"
         inkscape:connector-curvature="0"
         style="clip-rule:evenodd;fill:none" />
    </clipPath>
    <clipPath
       id="clip-path-23">
      <path
         class="cls-1"
         d="m 102.61,26.25 h -6 a 2.47,2.47 0 0 1 2.45,2.48 v 2.47 h 3.56 a 2.4,2.4 0 0 1 0,4.79 2.47,2.47 0 0 0 0,4.94 7.34,7.34 0 0 0 0,-14.68"
         id="path1512"
         inkscape:connector-curvature="0"
         style="clip-rule:evenodd;fill:none" />
    </clipPath>
    <clipPath
       id="clip-path-24">
      <rect
         class="cls-2"
         x="96"
         y="25.559999"
         width="14"
         height="16"
         id="rect1515"
         style="fill:none" />
    </clipPath>
    <clipPath
       id="clip-path-25">
      <path
         class="cls-1"
         d="m 96.6,26.25 a 2.47,2.47 0 0 0 -2.45,2.48 v 0 a 2.46,2.46 0 0 0 2.45,2.47 h 2.45 V 28.73 A 2.47,2.47 0 0 0 96.6,26.25"
         id="path1518"
         inkscape:connector-curvature="0"
         style="clip-rule:evenodd;fill:none" />
    </clipPath>
    <clipPath
       id="clip-path-29">
      <path
         class="cls-1"
         d="M 50,55.77 A 2.59,2.59 0 1 1 52.58,58.29 2.53,2.53 0 0 1 50,55.77 m 3.81,0 a 1.25,1.25 0 0 0 -1.23,-1.31 1.24,1.24 0 0 0 -1.22,1.31 1.25,1.25 0 0 0 1.23,1.31 1.24,1.24 0 0 0 1.22,-1.31"
         id="path1521"
         inkscape:connector-curvature="0"
         style="clip-rule:evenodd;fill:none" />
    </clipPath>
    <clipPath
       id="clip-path-31">
      <polygon
         class="cls-1"
         points="64.97,55.91 64.97,53.34 66.28,53.34 66.28,58.19 65.12,58.19 63.07,55.53 63.07,58.19 61.75,58.19 61.75,53.34 62.99,53.34 "
         id="polygon1524"
         style="clip-rule:evenodd;fill:none" />
    </clipPath>
    <clipPath
       id="clip-path-33">
      <polygon
         class="cls-1"
         points="74.63,57.02 76.95,57.02 76.95,58.19 73.3,58.19 73.3,53.34 74.63,53.34 "
         id="polygon1527"
         style="clip-rule:evenodd;fill:none" />
    </clipPath>
    <clipPath
       id="clip-path-35">
      <rect
         class="cls-2"
         x="83.709999"
         y="53.34"
         width="1.34"
         height="4.8499999"
         id="rect1530"
         style="fill:none" />
    </clipPath>
    <clipPath
       id="clip-path-37">
      <polygon
         class="cls-1"
         points="95.3,55.91 95.3,53.34 96.62,53.34 96.62,58.19 95.45,58.19 93.41,55.53 93.41,58.19 92.09,58.19 92.09,53.34 93.33,53.34 "
         id="polygon1533"
         style="clip-rule:evenodd;fill:none" />
    </clipPath>
    <clipPath
       id="clip-path-39">
      <polygon
         class="cls-1"
         points="107.49,54.49 104.95,54.49 104.95,55.22 107.25,55.22 107.25,56.28 104.95,56.28 104.95,57.05 107.53,57.05 107.53,58.19 103.63,58.19 103.63,53.34 107.49,53.34 "
         id="polygon1536"
         style="clip-rule:evenodd;fill:none" />
    </clipPath>
    <clipPath
       id="clip-path-41">
      <path
         class="cls-1"
         d="m 52.89,26.25 a 2.46,2.46 0 0 0 -2.45,2.48 v 0.19 a 2.45,2.45 0 1 0 4.89,0 v -0.19 a 2.46,2.46 0 0 0 -2.44,-2.48"
         id="path1539"
         inkscape:connector-curvature="0"
         style="clip-rule:evenodd;fill:none" />
    </clipPath>
    <clipPath
       id="clip-path-43">
      <path
         class="cls-1"
         d="M 52.89,33.36 A 4.31,4.31 0 0 1 50.44,32.6 v 11.22 a 2.45,2.45 0 1 0 4.89,0 V 32.6 a 4.28,4.28 0 0 1 -2.44,0.76"
         id="path1542"
         inkscape:connector-curvature="0"
         style="clip-rule:evenodd;fill:none" />
    </clipPath>
  </defs>
  <title
     id="title1547">iTopLogos+gray</title>
  <g
     class="cls-5"
     clip-path="url(#clip-path)"
     id="g1555"
     transform="translate(-50,-26.060495)">
    <g
       class="cls-6"
       clip-path="url(#clip-path-2)"
       id="g1553">
      <rect
         class="cls-7"
         x="55.02"
         y="21.17"
         width="27.91"
         height="14.95"
         id="rect1551"
         style="fill:#007bff" />
    </g>
  </g>
  <g
     class="cls-8"
     clip-path="url(#clip-path-3)"
     id="g1561"
     transform="translate(-50,-26.060495)">
    <g
       class="cls-6"
       clip-path="url(#clip-path-2)"
       id="g1559">
      <rect
         class="cls-9"
         x="70.160004"
         y="23.01"
         width="12.86"
         height="13.1"
         id="rect1557"
         style="fill:#8f90f4" />
    </g>
  </g>
  <g
     class="cls-8"
     clip-path="url(#clip-path-3)"
     id="g1567"
     transform="translate(-50,-26.060495)">
    <g
       class="cls-6"
       clip-path="url(#clip-path-2)"
       id="g1565">
      <rect
         class="cls-10"
         x="70.160004"
         y="23.01"
         width="12.86"
         height="13.1"
         id="rect1563"
         style="fill:#0000ff" />
    </g>
  </g>
  <g
     class="cls-11"
     clip-path="url(#clip-path-7)"
     id="g1573"
     transform="translate(-50,-26.060495)">
    <g
       class="cls-6"
       clip-path="url(#clip-path-2)"
       id="g1571">
      <rect
         class="cls-12"
         x="61.669998"
         y="26.110001"
         width="14.89"
         height="25.18"
         id="rect1569"
         style="fill:#00c9ff" />
    </g>
  </g>
  <g
     class="cls-13"
     clip-path="url(#clip-path-9)"
     id="g1579"
     transform="translate(-50,-26.060495)">
    <g
       class="cls-6"
       clip-path="url(#clip-path-2)"
       id="g1577">
      <rect
         class="cls-14"
         x="61.669998"
         y="21.25"
         width="14.89"
         height="14.86"
         id="rect1575"
         style="fill:#5dea86" />
    </g>
  </g>
  <g
     class="cls-13"
     clip-path="url(#clip-path-9)"
     id="g1585"
     transform="translate(-50,-26.060495)">
    <g
       class="cls-6"
       clip-path="url(#clip-path-2)"
       id="g1583">
      <rect
         class="cls-10"
         x="61.669998"
         y="21.25"
         width="14.89"
         height="14.86"
         id="rect1581"
         style="fill:#0000ff" />
    </g>
  </g>
  <g
     class="cls-15"
     clip-path="url(#clip-path-13)"
     id="g1591"
     transform="translate(-50,-26.060495)">
    <g
       class="cls-6"
       clip-path="url(#clip-path-2)"
       id="g1589">
      <rect
         class="cls-7"
         x="68.800003"
         y="31.25"
         width="30.040001"
         height="20.129999"
         id="rect1587"
         style="fill:#007bff" />
    </g>
  </g>
  <g
     class="cls-16"
     clip-path="url(#clip-path-15)"
     id="g1597"
     transform="translate(-50,-26.060495)">
    <g
       class="cls-17"
       clip-path="url(#clip-path-16)"
       id="g1595">
      <rect
         class="cls-12"
         x="68.800003"
         y="21.059999"
         width="30.040001"
         height="20.129999"
         id="rect1593"
         style="fill:#00c9ff" />
    </g>
  </g>
  <g
     class="cls-18"
     clip-path="url(#clip-path-17)"
     id="g1603"
     transform="translate(-50,-26.060495)">
    <g
       class="cls-6"
       clip-path="url(#clip-path-2)"
       id="g1601">
      <rect
         class="cls-10"
         x="68.790001"
         y="28.43"
         width="14.89"
         height="15.14"
         id="rect1599"
         style="fill:#0000ff" />
    </g>
  </g>
  <g
     class="cls-19"
     clip-path="url(#clip-path-19)"
     id="g1609"
     transform="translate(-50,-26.060495)">
    <g
       class="cls-6"
       clip-path="url(#clip-path-2)"
       id="g1607">
      <rect
         class="cls-10"
         x="83.93"
         y="28.43"
         width="14.89"
         height="15.14"
         id="rect1605"
         style="fill:#0000ff" />
    </g>
  </g>
  <g
     class="cls-20"
     clip-path="url(#clip-path-21)"
     id="g1615"
     transform="translate(-50,-26.060495)">
    <g
       class="cls-6"
       clip-path="url(#clip-path-2)"
       id="g1613">
      <rect
         class="cls-12"
         x="89.150002"
         y="23.77"
         width="14.89"
         height="27.530001"
         id="rect1611"
         style="fill:#00c9ff" />
    </g>
  </g>
  <g
     class="cls-21"
     clip-path="url(#clip-path-23)"
     id="g1621"
     transform="translate(-50,-26.060495)">
    <g
       class="cls-22"
       clip-path="url(#clip-path-24)"
       id="g1619">
      <rect
         class="cls-7"
         x="91.599998"
         y="21.25"
         width="23.27"
         height="24.68"
         id="rect1617"
         style="fill:#007bff" />
    </g>
  </g>
  <g
     class="cls-23"
     clip-path="url(#clip-path-25)"
     id="g1627"
     transform="translate(-50,-26.060495)">
    <g
       class="cls-6"
       clip-path="url(#clip-path-2)"
       id="g1625">
      <rect
         class="cls-24"
         x="89.150002"
         y="21.25"
         width="14.89"
         height="14.95"
         id="rect1623"
         style="fill:#3bdac9" />
    </g>
  </g>
  <g
     class="cls-23"
     clip-path="url(#clip-path-25)"
     id="g1633"
     transform="translate(-50,-26.060495)">
    <g
       class="cls-6"
       clip-path="url(#clip-path-2)"
       id="g1631">
      <rect
         class="cls-10"
         x="89.150002"
         y="21.25"
         width="14.89"
         height="14.95"
         id="rect1629"
         style="fill:#0000ff" />
    </g>
  </g>
  <g
     class="cls-25"
     clip-path="url(#clip-path-29)"
     id="g1639"
     transform="translate(-50,-26.060495)">
    <g
       class="cls-6"
       clip-path="url(#clip-path-2)"
       id="g1637">
      <rect
         class="cls-4"
         x="45"
         y="48.25"
         width="15.17"
         height="15.04"
         id="rect1635"
         style="fill:#ffffff" />
    </g>
  </g>
  <g
     class="cls-26"
     clip-path="url(#clip-path-31)"
     id="g1645"
     transform="translate(-50,-26.060495)">
    <g
       class="cls-6"
       clip-path="url(#clip-path-2)"
       id="g1643">
      <rect
         class="cls-4"
         x="56.75"
         y="48.34"
         width="14.53"
         height="14.85"
         id="rect1641"
         style="fill:#ffffff" />
    </g>
  </g>
  <g
     class="cls-27"
     clip-path="url(#clip-path-33)"
     id="g1651"
     transform="translate(-50,-26.060495)">
    <g
       class="cls-6"
       clip-path="url(#clip-path-2)"
       id="g1649">
      <rect
         class="cls-4"
         x="68.300003"
         y="48.34"
         width="13.65"
         height="14.85"
         id="rect1647"
         style="fill:#ffffff" />
    </g>
  </g>
  <g
     class="cls-28"
     clip-path="url(#clip-path-35)"
     id="g1657"
     transform="translate(-50,-26.060495)">
    <g
       class="cls-6"
       clip-path="url(#clip-path-2)"
       id="g1655">
      <rect
         class="cls-4"
         x="78.709999"
         y="48.34"
         width="11.34"
         height="14.85"
         id="rect1653"
         style="fill:#ffffff" />
    </g>
  </g>
  <g
     class="cls-29"
     clip-path="url(#clip-path-37)"
     id="g1663"
     transform="translate(-50,-26.060495)">
    <g
       class="cls-6"
       clip-path="url(#clip-path-2)"
       id="g1661">
      <rect
         class="cls-4"
         x="87.089996"
         y="48.34"
         width="14.53"
         height="14.85"
         id="rect1659"
         style="fill:#ffffff" />
    </g>
  </g>
  <g
     class="cls-30"
     clip-path="url(#clip-path-39)"
     id="g1669"
     transform="translate(-50,-26.060495)">
    <g
       class="cls-6"
       clip-path="url(#clip-path-2)"
       id="g1667">
      <rect
         class="cls-4"
         x="98.629997"
         y="48.34"
         width="13.89"
         height="14.85"
         id="rect1665"
         style="fill:#ffffff" />
    </g>
  </g>
  <g
     class="cls-31"
     clip-path="url(#clip-path-41)"
     id="g1675"
     transform="translate(-50,-26.060495)">
    <g
       class="cls-6"
       clip-path="url(#clip-path-2)"
       id="g1673">
      <rect
         class="cls-10"
         x="45.439999"
         y="21.25"
         width="14.89"
         height="15.14"
         id="rect1671"
         style="fill:#0000ff" />
    </g>
  </g>
  <g
     class="cls-32"
     clip-path="url(#clip-path-43)"
     id="g1681"
     transform="translate(-50,-26.060495)">
    <g
       class="cls-6"
       clip-path="url(#clip-path-2)"
       id="g1679">
      <rect
         class="cls-33"
         x="45.439999"
         y="27.6"
         width="14.89"
         height="23.700001"
         id="rect1677"
         style="fill:#fa006b" />
    </g>
  </g>
</svg>
