<svg xmlns="http://www.w3.org/2000/svg" width="165" height="88">
    <path fill="#007BFF" fill-rule="evenodd" d="M80.384 10.683c-.686-2.491-3.031-4.337-5.847-4.337H42.031c-3.351 0-6.07 2.604-6.07 5.817s2.719 5.818 6.07 5.818h10.433v-5.614c0-3.213 2.718-5.818 6.07-5.818 3.352 0 6.069 2.605 6.069 5.818v5.614h8.914c1.74-2.867 4.083-5.349 6.867-7.298"/>
    <path fill="#8F90F4" fill-rule="evenodd" d="M80.384 13.136c0-.522-.095-1.019-.232-1.501-2.907 1.976-5.354 4.494-7.171 7.403h1.065c3.501 0 6.338-2.642 6.338-5.902"/>
    <path fill="#00F" fill-rule="evenodd" d="M80.384 13.136c0-.522-.095-1.019-.232-1.501-2.907 1.976-5.354 4.494-7.171 7.403h1.065c3.501 0 6.338-2.642 6.338-5.902"/>
    <path fill="#00C9FF" fill-rule="evenodd" d="M52.884 50.026c0 3.332 2.605 6.032 5.818 6.032 3.212 0 5.817-2.7 5.817-6.032V19.038H52.884v30.988z"/>
    <path fill="#5DEA86" fill-rule="evenodd" d="M58.702 7.404c-3.213 0-5.818 2.651-5.818 5.92v5.714h11.635v-5.714c0-3.269-2.605-5.92-5.817-5.92"/>
    <path fill="#00F" fill-rule="evenodd" d="M58.702 7.404c-3.213 0-5.818 2.651-5.818 5.92v5.714h11.635v-5.714c0-3.269-2.605-5.92-5.817-5.92"/>
    <path fill="#007BFF" fill-rule="evenodd" d="M107.381 31.731c0 6.863-5.705 12.447-12.718 12.447s-12.718-5.584-12.718-12.447H69.808c0 13.414 11.149 24.327 24.855 24.327 13.706 0 24.856-10.913 24.856-24.327h-12.138z"/>
    <path fill="#00C9FF" fill-rule="evenodd" d="M81.945 30.673c0-6.864 5.705-12.448 12.718-12.448s12.718 5.584 12.718 12.448h12.138c0-13.414-11.15-24.327-24.856-24.327-5.464 0-10.505 1.755-14.612 4.69.131.486.222.987.222 1.512 0 3.281-2.717 5.939-6.068 5.939h-1.021c-2.134 3.589-3.376 7.743-3.376 12.186h12.137z"/>
    <path fill="#00F" fill-rule="evenodd" d="M75.625 24.327c-3.213 0-5.817 2.735-5.817 6.109v.474c0 3.374 2.604 6.109 5.817 6.109 3.212 0 5.817-2.735 5.817-6.109v-.474c0-3.374-2.605-6.109-5.817-6.109M112.644 24.327c-3.212 0-5.817 2.735-5.817 6.109v.474c0 3.374 2.605 6.109 5.817 6.109s5.817-2.735 5.817-6.109v-.474c0-3.374-2.605-6.109-5.817-6.109"/>
    <path fill="#00C9FF" fill-rule="evenodd" d="M120.577 12.692V49.03c0 3.298 2.604 5.97 5.817 5.97s5.817-2.672 5.817-5.97V18.569h-5.826c-3.182 0-5.759-2.623-5.808-5.877"/>
    <path fill="#007BFF" fill-rule="evenodd" d="M140.706 6.346h-14.841c3.339 0 6.046 2.712 6.046 6.058v6.057h8.795c3.228 0 5.854 2.631 5.854 5.867 0 3.232-2.626 5.864-5.854 5.864-3.339 0-6.046 2.712-6.046 6.058 0 3.346 2.707 6.058 6.046 6.058 9.896 0 17.948-8.066 17.948-17.98 0-9.915-8.052-17.982-17.948-17.982"/>
    <path fill="#3BDAC9" fill-rule="evenodd" d="M126.394 7.404c-3.213 0-5.817 2.604-5.817 5.817v.09c.049 3.171 2.626 5.727 5.808 5.727h5.826v-5.817c0-3.213-2.604-5.817-5.817-5.817"/>
    <path fill="#00F" fill-rule="evenodd" d="M126.394 7.404c-3.213 0-5.817 2.604-5.817 5.817v.09c.049 3.171 2.626 5.727 5.808 5.727h5.826v-5.817c0-3.213-2.604-5.817-5.817-5.817"/>
    <path fill="#FFF" fill-rule="evenodd" d="M15.019 82.5h-3.385v-9.519h3.436c3.181 0 5.026 1.957 5.026 4.732 0 2.746-1.871 4.787-5.077 4.787zm.089-7.208h-1.005v4.868h1.005c1.476 0 2.456-.87 2.456-2.434 0-1.522-.98-2.434-2.456-2.434z"/>
    <path fill-opacity="0" fill-rule="evenodd" d="M0 87.788h165V0H0v87.788z"/>
    <path fill="#FFF" fill-rule="evenodd" d="M26.442 82.5h2.115v-9.519h-2.115V82.5zM34.903 80.975l1.309-1.696c.836.723 1.769 1.104 2.751 1.104.63 0 .969-.237.969-.658 0-.38-.278-.591-1.43-.88-1.805-.448-3.199-1-3.199-2.919 0-1.709 1.249-2.945 3.284-2.945 1.442 0 2.569.42 3.49 1.222l-1.175 1.802c-.776-.592-1.624-.907-2.376-.907-.569 0-.848.262-.848.618 0 .42.292.604 1.467.893 1.951.461 3.163 1.145 3.163 2.894 0 1.88-1.37 2.997-3.43 2.997-1.502 0-2.932-.513-3.975-1.525M49.432 75.293h-2.894v-2.312H55v2.312h-2.895V82.5h-2.673v-7.207zM66.556 79.181L68.75 82.5h-2.943l-1.853-2.883h-1.117V82.5h-2.549v-9.519h4.349c1.406 0 2.379.38 2.996 1.019.539.558.815 1.292.815 2.257 0 1.456-.749 2.421-1.892 2.924zm-2.05-3.916h-1.669v2.284h1.682c.867 0 1.367-.435 1.367-1.156 0-.748-.526-1.128-1.38-1.128zM75.096 82.5h2.115v-9.519h-2.115V82.5zM90.141 77.523c1.148.381 1.878 1.033 1.878 2.352 0 1.632-1.324 2.625-3.582 2.625h-4.879v-9.519h4.852c1.19 0 2.028.298 2.581.857.38.38.609.883.609 1.563 0 1.102-.622 1.754-1.459 2.122zm-2.325-2.421h-1.704v1.673h1.649c.798 0 1.244-.272 1.244-.857 0-.517-.405-.816-1.189-.816zm.297 3.523h-2.001v1.753h2.028c.797 0 1.257-.312 1.257-.897 0-.517-.406-.856-1.284-.856zM97.308 78.227v-5.246h2.556v5.193c0 1.348.662 1.989 1.674 1.989s1.674-.614 1.674-1.923v-5.259h2.557v5.18c0 3.017-1.674 4.339-4.257 4.339-2.582 0-4.204-1.348-4.204-4.273M113.951 75.293h-2.893v-2.312h8.461v2.312h-2.895V82.5h-2.673v-7.207zM124.808 82.5h2.115v-9.519h-2.115V82.5zM138.016 82.5c-2.727 0-4.747-2.106-4.747-4.759 0-2.629 2.045-4.76 4.772-4.76 2.727 0 4.747 2.105 4.747 4.76 0 2.627-2.045 4.759-4.772 4.759zm0-7.231c-1.338 0-2.235 1.125-2.235 2.472 0 1.32.922 2.471 2.26 2.471 1.351 0 2.247-1.125 2.247-2.471 0-1.321-.921-2.472-2.272-2.472zM149.134 72.981h2.318l3.686 5.031v-5.031h2.458V82.5h-2.177l-3.827-5.222V82.5h-2.458v-9.519z"/>
    <path fill="#00F" fill-rule="evenodd" d="M18.509 6.346c-3.212 0-5.817 2.735-5.817 6.109v.474c0 3.374 2.605 6.109 5.817 6.109s5.818-2.735 5.818-6.109v-.474c0-3.374-2.606-6.109-5.818-6.109"/>
    <path fill="#FA006B" fill-rule="evenodd" d="M18.509 24.05c-2.16 0-4.162-.681-5.817-1.839V49.08c0 3.27 2.605 5.92 5.817 5.92s5.818-2.65 5.818-5.92V22.211c-1.656 1.159-3.658 1.839-5.818 1.839"/>
</svg>
