<svg xmlns="http://www.w3.org/2000/svg" width="123" height="64">
    <path fill="#007BFF" fill-rule="evenodd" d="M57.387 4.15c-.568-2.152-2.509-3.746-4.84-3.746H25.639c-2.775 0-5.025 2.248-5.025 5.024s2.25 5.025 5.025 5.025h8.636V5.604c0-2.775 2.25-5.025 5.024-5.025 2.775 0 5.025 2.25 5.025 5.025v4.849h7.378c1.442-2.476 3.381-4.62 5.685-6.303"/>
    <path fill="#8F90F4" fill-rule="evenodd" d="M57.572 5.428c0-.444-.076-.867-.184-1.278-2.305 1.683-4.245 3.827-5.686 6.303h.845c2.775 0 5.025-2.249 5.025-5.025"/>
    <path fill="#00F" fill-rule="evenodd" d="M57.572 5.428c0-.444-.076-.867-.184-1.278-2.305 1.683-4.245 3.827-5.686 6.303h.845c2.775 0 5.025-2.249 5.025-5.025"/>
    <path fill="#00C9FF" fill-rule="evenodd" d="M34.275 36.269c0 2.775 2.25 5.025 5.025 5.025 2.774 0 5.024-2.25 5.024-5.025V10.453H34.275v25.816z"/>
    <path fill="#5DEA86" fill-rule="evenodd" d="M39.299.579c-2.774 0-5.024 2.25-5.024 5.025v4.849h10.049V5.604c0-2.775-2.25-5.025-5.025-5.025"/>
    <path fill="#00F" fill-rule="evenodd" d="M39.299.579c-2.774 0-5.024 2.25-5.024 5.025v4.849h10.049V5.604c0-2.775-2.25-5.025-5.025-5.025"/>
    <path fill="#007BFF" fill-rule="evenodd" d="M80.016 20.879c0 5.807-4.724 10.531-10.53 10.531-5.807 0-10.53-4.724-10.53-10.531h-10.05c0 11.348 9.232 20.58 20.58 20.58 11.347 0 20.579-9.232 20.579-20.58H80.016z"/>
    <path fill="#00C9FF" fill-rule="evenodd" d="M58.956 20.761c0-5.806 4.723-10.53 10.53-10.53 5.806 0 10.53 4.724 10.53 10.53h10.049C90.065 9.414 80.833.182 69.486.182c-4.524 0-8.698 1.484-12.099 3.968.109.41.185.834.185 1.278 0 2.776-2.25 5.025-5.025 5.025h-.845c-1.766 3.036-2.796 6.55-2.796 10.308h10.05z"/>
    <path fill="#00F" fill-rule="evenodd" d="M53.91 15.165c-2.775 0-5.025 2.25-5.025 5.025v.39c0 2.774 2.25 5.024 5.025 5.024 2.774 0 5.025-2.25 5.025-5.024v-.39c0-2.775-2.251-5.025-5.025-5.025M85.003 15.165c-2.774 0-5.025 2.25-5.025 5.025v.39c0 2.774 2.251 5.024 5.025 5.024 2.775 0 5.025-2.25 5.025-5.024v-.39c0-2.775-2.25-5.025-5.025-5.025"/>
    <path fill="#00C9FF" fill-rule="evenodd" d="M90.708 5.682v30.587c0 2.775 2.25 5.024 5.025 5.024 2.774 0 5.024-2.249 5.024-5.024V10.628h-5.032c-2.749 0-4.974-2.208-5.017-4.946"/>
    <path fill="#007BFF" fill-rule="evenodd" d="M108.065.579H95.733c2.774 0 5.024 2.25 5.024 5.025v5.024h7.308c2.683 0 4.865 2.183 4.865 4.866 0 2.682-2.182 4.865-4.865 4.865-2.775 0-5.024 2.249-5.024 5.024 0 2.776 2.249 5.025 5.024 5.025 8.224 0 14.914-6.69 14.914-14.914S116.289.579 108.065.579"/>
    <path fill="#3BDAC9" fill-rule="evenodd" d="M95.733.579c-2.775 0-5.025 2.25-5.025 5.025v.078c.043 2.738 2.269 4.946 5.017 4.946h5.032V5.604c0-2.775-2.25-5.025-5.024-5.025"/>
    <path fill="#00F" fill-rule="evenodd" d="M95.733.579c-2.775 0-5.025 2.25-5.025 5.025v.078c.043 2.738 2.269 4.946 5.017 4.946h5.032V5.604c0-2.775-2.25-5.025-5.024-5.025"/>
    <path fill-rule="evenodd" d="M3.065 63.202H.182v-7.587h2.926c2.71 0 4.281 1.56 4.281 3.771 0 2.19-1.593 3.816-4.324 3.816zm.075-5.745h-.856v3.88h.856c1.257 0 2.092-.693 2.092-1.94 0-1.213-.835-1.94-2.092-1.94zM12.31 63.201h2.114v-7.586H12.31v7.586zM19.03 62.074l1.17-1.398c.748.596 1.583.911 2.46.911.564 0 .868-.196.868-.543 0-.314-.249-.487-1.279-.726-1.615-.368-2.862-.823-2.862-2.406 0-1.408 1.117-2.427 2.938-2.427 1.289 0 2.297.346 3.121 1.008l-1.051 1.485c-.694-.488-1.452-.748-2.125-.748-.509 0-.758.216-.758.509 0 .347.26.499 1.311.737 1.745.38 2.829.943 2.829 2.385 0 1.55-1.225 2.47-3.067 2.47-1.344 0-2.623-.422-3.555-1.257M32.101 57.457h-2.276v-1.842h6.655v1.842h-2.276v5.744h-2.103v-5.744zM46.365 60.557l1.809 2.645h-2.427l-1.528-2.298h-.922v2.298h-2.102v-7.587h3.587c1.159 0 1.962.304 2.471.813.444.444.672 1.029.672 1.799 0 1.159-.618 1.929-1.56 2.33zm-1.691-3.121h-1.377v1.82h1.387c.715 0 1.128-.346 1.128-.921 0-.596-.434-.899-1.138-.899zM52.825 63.201h2.113v-7.586h-2.113v7.586zM65.397 59.235c.921.303 1.506.823 1.506 1.875 0 1.3-1.062 2.091-2.872 2.091h-3.913v-7.586h3.891c.954 0 1.626.238 2.07.683.304.303.488.704.488 1.246 0 .878-.499 1.398-1.17 1.691zm-1.864-1.929h-1.366v1.333h1.322c.639 0 .997-.217.997-.683 0-.412-.325-.65-.953-.65zm.238 2.807h-1.604v1.398h1.625c.64 0 1.009-.25 1.009-.716 0-.412-.326-.682-1.03-.682zM71.564 59.874v-4.259h2.135v4.216c0 1.094.553 1.615 1.398 1.615.845 0 1.398-.499 1.398-1.561v-4.27h2.135v4.205c0 2.449-1.398 3.522-3.554 3.522-2.157 0-3.512-1.094-3.512-3.468M85.524 57.457h-2.276v-1.842h6.654v1.842h-2.276v5.744h-2.102v-5.744zM94.66 63.201h2.114v-7.586H94.66v7.586zM105.77 63.353c-2.341 0-4.075-1.745-4.075-3.945 0-2.178 1.756-3.945 4.096-3.945 2.341 0 4.075 1.745 4.075 3.945 0 2.178-1.755 3.945-4.096 3.945zm0-5.993c-1.149 0-1.919.932-1.919 2.048 0 1.095.792 2.049 1.94 2.049 1.16 0 1.93-.933 1.93-2.049 0-1.094-.792-2.048-1.951-2.048zM114.755 55.615h1.962l3.121 4.01v-4.01h2.081v7.586h-1.842l-3.241-4.161v4.161h-2.081v-7.586z"/>
    <path fill="#00F" fill-rule="evenodd" d="M5.971.579C3.196.579.946 2.829.946 5.604v.389c0 2.776 2.25 5.025 5.025 5.025 2.774 0 5.025-2.249 5.025-5.025v-.389c0-2.775-2.251-5.025-5.025-5.025"/>
    <path fill="#FA006B" fill-rule="evenodd" d="M5.971 15.025c-1.866 0-3.596-.578-5.025-1.56v22.804c0 2.775 2.25 5.024 5.025 5.024 2.774 0 5.025-2.249 5.025-5.024V13.465c-1.43.983-3.16 1.56-5.025 1.56"/>
</svg>
