<svg xmlns="http://www.w3.org/2000/svg" width="169" height="39">
    <path fill="#EC1B24" fill-rule="evenodd" d="M159.277 38.086v-14.67h-11.179v14.67h-9.668V.941h9.668v13.674h11.179V.941H169v37.145h-9.723zm-39.03-7.999c3.516 0 5.136-1.744 6.647-4.29l7.498 5.121c-3.79 5.48-7.306 8.082-14.585 8.082-10.382 0-17.083-8.664-17.083-19.708 0-10.49 6.042-19.209 17.166-19.209 6.098 0 10.492 2.408 14.2 8.082l-7.416 4.955c-1.51-2.63-3.46-4.18-6.701-4.18-4.093 0-8.048 3.709-8.048 10.325 0 7.418 4.257 10.822 8.322 10.822zM86.409 15.251l1.291.277c5.273 1.107 11.618 2.74 11.618 11.321 0 8.193-7.334 12.123-14.255 12.123-7.993 0-12.113-3.072-15.354-6.975l5.878-5.813c2.5 3.184 5.74 4.789 9.339 4.789 2.966 0 4.971-1.495 4.971-3.682 0-2.352-1.758-3.1-6.592-4.124l-1.291-.276c-5.823-1.218-10.602-4.568-10.602-11.211C71.412 4.373 77.29 0 85.09 0c6.592 0 10.85 2.851 13.459 5.813l-5.741 5.702c-1.785-1.91-4.476-3.46-7.553-3.46-2.115 0-4.477.996-4.477 3.46 0 2.241 2.472 3.072 5.631 3.736zM50.703 38.972c-10.685 0-16.975-8.553-16.975-19.486C33.728 8.608 39.991 0 50.675 0c10.739 0 16.974 8.608 16.974 19.486 0 10.933-6.207 19.486-16.946 19.486zM50.675 8.94c-5.246 0-7.828 4.733-7.828 10.546 0 5.868 2.582 10.601 7.828 10.601s7.883-4.733 7.883-10.601c0-5.813-2.637-10.546-7.883-10.546zM18.842 38.114H0V.941h17.276c6.647 0 11.453 3.349 11.453 10.214 0 5.868-5.081 7.639-5.081 7.639 0 .028 6.702 1.578 6.702 8.94 0 6.256-5.713 10.38-11.508 10.38zM15.82 8.663H9.063v6.92h6.593c2.362 0 3.68-1.743 3.68-3.404 0-2.076-1.401-3.516-3.516-3.516zm-.164 14.393H9.063v7.308h6.757c2.747 0 4.697-.996 4.697-3.681 0-2.132-1.565-3.627-4.861-3.627z"/>
</svg>
